<svg width="1440" height="1718" viewBox="0 0 1440 1718" fill="none" xmlns="http://www.w3.org/2000/svg">
<rect width="1440" height="1718" fill="#1F0748"/>
<path d="M559.214 1078.17C559.214 1081.28 556.684 1083.81 553.574 1083.81C550.464 1083.81 547.934 1081.28 547.934 1078.17C547.934 1075.06 550.464 1072.53 553.574 1072.53C556.696 1072.54 559.214 1075.06 559.214 1078.17Z" fill="white" fill-opacity="0.21"/>
<path d="M438.192 1170.74C438.192 1173.85 435.662 1176.38 432.552 1176.38C429.442 1176.38 426.912 1173.85 426.912 1170.74C426.912 1167.63 429.442 1165.1 432.552 1165.1C435.674 1165.1 438.192 1167.63 438.192 1170.74Z" fill="white" fill-opacity="0.21"/>
<path d="M63.143 1415.37C63.143 1418.48 60.613 1421.01 57.5029 1421.01C54.3928 1421.01 51.8628 1418.48 51.8628 1415.37C51.8628 1412.26 54.3928 1409.73 57.5029 1409.73C60.613 1409.73 63.143 1412.26 63.143 1415.37Z" fill="white" fill-opacity="0.21"/>
<path d="M559.214 1288.66C559.214 1291.77 556.684 1294.3 553.574 1294.3C550.464 1294.3 547.934 1291.77 547.934 1288.66C547.934 1285.55 550.464 1283.02 553.574 1283.02C556.696 1283.02 559.214 1285.54 559.214 1288.66Z" fill="white" fill-opacity="0.21"/>
<path d="M570.494 1209.73C570.494 1212.84 567.964 1215.37 564.854 1215.37C561.744 1215.37 559.214 1212.84 559.214 1209.73C559.214 1206.62 561.744 1204.09 564.854 1204.09C567.964 1204.1 570.494 1206.62 570.494 1209.73Z" fill="white" fill-opacity="0.21"/>
<path d="M651.405 1072.54C651.405 1075.65 648.875 1078.18 645.765 1078.18C642.655 1078.18 640.125 1075.65 640.125 1072.54C640.125 1069.43 642.655 1066.9 645.765 1066.9C648.875 1066.9 651.405 1069.41 651.405 1072.54Z" fill="white" fill-opacity="0.21"/>
<path d="M82.2802 842.64C82.2802 845.75 79.7502 848.28 76.6401 848.28C73.53 848.28 71 845.75 71 842.64C71 839.53 73.53 837 76.6401 837C79.7625 837 82.2802 839.53 82.2802 842.64Z" fill="white" fill-opacity="0.21"/>
<path d="M41.2802 1006.64C41.2802 1009.75 38.7502 1012.28 35.6401 1012.28C32.53 1012.28 30 1009.75 30 1006.64C30 1003.53 32.53 1001 35.6401 1001C38.7625 1001 41.2802 1003.53 41.2802 1006.64Z" fill="white" fill-opacity="0.21"/>
<path d="M182.523 1039.51C182.523 1042.62 179.993 1045.15 176.883 1045.15C173.773 1045.15 171.243 1042.62 171.243 1039.51C171.243 1036.4 173.773 1033.87 176.883 1033.87C179.993 1033.87 182.523 1036.4 182.523 1039.51Z" fill="white" fill-opacity="0.21"/>
<path d="M151.694 1181.83C151.694 1184.95 149.164 1187.48 146.054 1187.48C142.944 1187.48 140.414 1184.95 140.414 1181.83C140.414 1178.72 142.944 1176.19 146.054 1176.19C149.177 1176.19 151.694 1178.72 151.694 1181.83Z" fill="white" fill-opacity="0.21"/>
<path d="M22.2802 1176.19C22.2802 1179.3 19.7502 1181.83 16.6401 1181.83C13.53 1181.83 11 1179.32 11 1176.19C11 1173.08 13.53 1170.55 16.6401 1170.55C19.7502 1170.55 22.2802 1173.08 22.2802 1176.19Z" fill="white" fill-opacity="0.21"/>
<path d="M128.85 1399.39C128.85 1400.94 127.591 1402.19 126.049 1402.19C124.506 1402.19 123.247 1400.94 123.247 1399.39C123.247 1397.85 124.506 1396.59 126.049 1396.59C127.591 1396.59 128.85 1397.85 128.85 1399.39Z" fill="white" fill-opacity="0.21"/>
<path d="M390.134 1421.01C390.134 1422.56 388.875 1423.82 387.333 1423.82C385.79 1423.82 384.531 1422.56 384.531 1421.01C384.531 1419.47 385.79 1418.21 387.333 1418.21C388.888 1418.21 390.134 1419.47 390.134 1421.01Z" fill="white" fill-opacity="0.21"/>
<path d="M614.628 1042.31C614.628 1043.86 613.369 1045.11 611.826 1045.11C610.283 1045.11 609.025 1043.86 609.025 1042.31C609.025 1040.77 610.283 1039.51 611.826 1039.51C613.369 1039.51 614.628 1040.77 614.628 1042.31Z" fill="white" fill-opacity="0.21"/>
<path d="M496.309 1033.87C497.856 1033.87 499.11 1032.62 499.11 1031.07C499.11 1029.52 497.856 1028.27 496.309 1028.27C494.761 1028.27 493.507 1029.52 493.507 1031.07C493.507 1032.62 494.761 1033.87 496.309 1033.87Z" fill="white" fill-opacity="0.21"/>
<path d="M22.2432 1288.66C22.2432 1290.21 20.9844 1291.46 19.4417 1291.46C17.899 1291.46 16.6401 1290.21 16.6401 1288.66C16.6401 1287.12 17.899 1285.86 19.4417 1285.86C20.9844 1285.86 22.2432 1287.11 22.2432 1288.66Z" fill="white" fill-opacity="0.21"/>
<path d="M76.5337 1245.41C76.5337 1246.95 75.2749 1248.21 73.7322 1248.21C72.1895 1248.21 70.9307 1246.95 70.9307 1245.41C70.9307 1243.86 72.1895 1242.6 73.7322 1242.6C75.2749 1242.6 76.5337 1243.86 76.5337 1245.41Z" fill="white" fill-opacity="0.21"/>
<path d="M41.2745 1167.76C41.2745 1169.31 40.0156 1170.57 38.4729 1170.57C36.9302 1170.57 35.6714 1169.31 35.6714 1167.76C35.6714 1166.22 36.9302 1164.96 38.4729 1164.96C40.0156 1164.96 41.2745 1166.21 41.2745 1167.76Z" fill="white" fill-opacity="0.21"/>
<path d="M409.794 1039.51C409.794 1041.05 408.535 1042.31 406.992 1042.31C405.45 1042.31 404.191 1041.05 404.191 1039.51C404.191 1037.97 405.45 1036.71 406.992 1036.71C408.547 1036.71 409.794 1037.97 409.794 1039.51Z" fill="white" fill-opacity="0.21"/>
<path d="M509.082 1319.8C509.082 1321.34 507.823 1322.6 506.281 1322.6C504.738 1322.6 503.479 1321.34 503.479 1319.8C503.479 1318.26 504.738 1317 506.281 1317C507.823 1317 509.082 1318.26 509.082 1319.8Z" fill="white" fill-opacity="0.21"/>
<path d="M365.339 1328.21C365.339 1329.75 364.081 1331.01 362.538 1331.01C360.995 1331.01 359.736 1329.75 359.736 1328.21C359.736 1326.66 360.995 1325.4 362.538 1325.4C364.081 1325.4 365.339 1326.65 365.339 1328.21Z" fill="white" fill-opacity="0.21"/>
<path d="M757.765 1264.19C757.765 1265.73 756.507 1266.99 754.964 1266.99C753.421 1266.99 752.162 1265.73 752.162 1264.19C752.162 1262.65 753.421 1261.39 754.964 1261.39C756.507 1261.39 757.765 1262.63 757.765 1264.19Z" fill="white" fill-opacity="0.21"/>
<path d="M671.214 1164.96C671.214 1166.51 669.955 1167.77 668.412 1167.77C666.869 1167.77 665.611 1166.51 665.611 1164.96C665.611 1163.42 666.869 1162.16 668.412 1162.16C669.955 1162.16 671.214 1163.41 671.214 1164.96Z" fill="white" fill-opacity="0.21"/>
<path d="M471.675 1080.97C473.222 1080.97 474.476 1079.71 474.476 1078.16C474.476 1076.62 473.222 1075.36 471.675 1075.36C470.128 1075.36 468.873 1076.62 468.873 1078.16C468.873 1079.71 470.128 1080.97 471.675 1080.97Z" fill="white" fill-opacity="0.21"/>
<path d="M676.854 1116.53C676.854 1118.08 675.595 1119.34 674.052 1119.34C672.51 1119.34 671.251 1118.08 671.251 1116.53C671.251 1114.99 672.51 1113.73 674.052 1113.73C675.595 1113.73 676.854 1114.99 676.854 1116.53Z" fill="white" fill-opacity="0.21"/>
<path d="M270.741 1325.4C270.741 1326.95 269.482 1328.21 267.94 1328.21C266.397 1328.21 265.138 1326.95 265.138 1325.4C265.138 1323.86 266.397 1322.6 267.94 1322.6C269.495 1322.6 270.741 1323.86 270.741 1325.4Z" fill="white" fill-opacity="0.21"/>
<path d="M107.017 1325.4C108.565 1325.4 109.819 1324.15 109.819 1322.6C109.819 1321.06 108.565 1319.8 107.017 1319.8C105.47 1319.8 104.216 1321.06 104.216 1322.6C104.216 1324.15 105.47 1325.4 107.017 1325.4Z" fill="white" fill-opacity="0.21"/>
<path d="M788.373 1042.35C788.373 1045.46 785.842 1047.99 782.732 1047.99C779.622 1047.99 777.092 1045.46 777.092 1042.35C777.092 1039.24 779.622 1036.71 782.732 1036.71C785.842 1036.71 788.373 1039.24 788.373 1042.35Z" fill="white" fill-opacity="0.21"/>
<path d="M728.479 1107.65C728.479 1110.76 725.949 1113.29 722.839 1113.29C719.729 1113.29 717.198 1110.76 717.198 1107.65C717.198 1104.54 719.729 1102.01 722.839 1102.01C725.949 1102.01 728.479 1104.54 728.479 1107.65Z" fill="white" fill-opacity="0.21"/>
<path d="M728.43 1220.12C728.43 1221.66 727.171 1222.92 725.628 1222.92C724.085 1222.92 722.826 1221.66 722.826 1220.12C722.826 1218.58 724.085 1217.32 725.628 1217.32C727.183 1217.32 728.43 1218.56 728.43 1220.12Z" fill="white" fill-opacity="0.21"/>
<path d="M782.732 1176.86C782.732 1178.4 781.474 1179.66 779.931 1179.66C778.388 1179.66 777.129 1178.4 777.129 1176.86C777.129 1175.32 778.388 1174.06 779.931 1174.06C781.474 1174.06 782.732 1175.32 782.732 1176.86Z" fill="white" fill-opacity="0.21"/>
<path d="M747.472 1099.22C747.472 1100.76 746.214 1102.02 744.671 1102.02C743.128 1102.02 741.869 1100.76 741.869 1099.22C741.869 1097.68 743.128 1096.42 744.671 1096.42C746.214 1096.42 747.472 1097.66 747.472 1099.22Z" fill="white" fill-opacity="0.21"/>
<path d="M650.443 1329.28C650.443 1332.39 647.913 1334.92 644.803 1334.92C641.693 1334.92 639.163 1332.39 639.163 1329.28C639.163 1326.17 641.693 1323.64 644.803 1323.64C647.925 1323.64 650.443 1326.17 650.443 1329.28Z" fill="white" fill-opacity="0.21"/>
<path d="M674.052 1452.91C674.052 1456.02 671.522 1458.55 668.412 1458.55C665.302 1458.55 662.772 1456.02 662.772 1452.91C662.772 1449.8 665.302 1447.27 668.412 1447.27C671.522 1447.28 674.052 1449.8 674.052 1452.91Z" fill="white" fill-opacity="0.21"/>
<path d="M703.672 1501.77C703.672 1503.31 702.413 1504.57 700.871 1504.57C699.328 1504.57 698.069 1503.31 698.069 1501.77C698.069 1500.22 699.328 1498.96 700.871 1498.96C702.426 1498.96 703.672 1500.22 703.672 1501.77Z" fill="white" fill-opacity="0.21"/>
<path d="M746.485 1458.55C746.485 1460.09 745.226 1461.35 743.684 1461.35C742.141 1461.35 740.882 1460.09 740.882 1458.55C740.882 1457 742.141 1455.74 743.684 1455.74C745.226 1455.74 746.485 1457 746.485 1458.55Z" fill="white" fill-opacity="0.21"/>
<path d="M647.604 1473.02C647.604 1474.56 646.345 1475.82 644.803 1475.82C643.26 1475.82 642.001 1474.56 642.001 1473.02C642.001 1471.48 643.26 1470.22 644.803 1470.22C646.358 1470.22 647.604 1471.48 647.604 1473.02Z" fill="white" fill-opacity="0.21"/>
<path d="M714.644 1412.63C714.644 1415.74 712.114 1418.27 709.004 1418.27C705.894 1418.27 703.364 1415.74 703.364 1412.63C703.364 1409.52 705.894 1406.99 709.004 1406.99C712.114 1406.99 714.644 1409.52 714.644 1412.63Z" fill="white" fill-opacity="0.21"/>
<path d="M829.199 1466.1C830.746 1466.1 832 1464.84 832 1463.3C832 1461.75 830.746 1460.5 829.199 1460.5C827.651 1460.5 826.397 1461.75 826.397 1463.3C826.397 1464.84 827.651 1466.1 829.199 1466.1Z" fill="white" fill-opacity="0.21"/>
<path d="M794.124 1339.45C794.124 1340.99 792.865 1342.25 791.322 1342.25C789.779 1342.25 788.521 1340.99 788.521 1339.45C788.521 1337.91 789.779 1336.65 791.322 1336.65C792.865 1336.66 794.124 1337.91 794.124 1339.45Z" fill="white" fill-opacity="0.21"/>
<path d="M816.018 1254.06C816.018 1255.6 814.759 1256.86 813.216 1256.86C811.673 1256.86 810.415 1255.6 810.415 1254.06C810.415 1252.51 811.673 1251.26 813.216 1251.26C814.759 1251.26 816.018 1252.51 816.018 1254.06Z" fill="white" fill-opacity="0.21"/>
<path d="M232.26 1594.03C232.26 1595.57 231.001 1596.83 229.459 1596.83C227.916 1596.83 226.657 1595.57 226.657 1594.03C226.657 1592.49 227.916 1591.23 229.459 1591.23C231.001 1591.23 232.26 1592.49 232.26 1594.03Z" fill="white" fill-opacity="0.21"/>
<path d="M133.379 1608.51C133.379 1610.05 132.121 1611.31 130.578 1611.31C129.035 1611.31 127.776 1610.05 127.776 1608.51C127.776 1606.96 129.035 1605.71 130.578 1605.71C132.121 1605.71 133.379 1606.96 133.379 1608.51Z" fill="white" fill-opacity="0.21"/>
<path d="M317.8 1486.31C317.8 1489.42 315.27 1491.95 312.16 1491.95C309.05 1491.95 306.52 1489.42 306.52 1486.31C306.52 1483.2 309.05 1480.67 312.16 1480.67C315.282 1480.67 317.8 1483.2 317.8 1486.31Z" fill="white" fill-opacity="0.21"/>
<path d="M317.763 1598.77C317.763 1600.31 316.504 1601.57 314.961 1601.57C313.419 1601.57 312.16 1600.31 312.16 1598.77C312.16 1597.23 313.419 1595.97 314.961 1595.97C316.516 1595.98 317.763 1597.23 317.763 1598.77Z" fill="white" fill-opacity="0.21"/>
<path d="M372.066 1555.53C372.066 1557.07 370.807 1558.33 369.264 1558.33C367.722 1558.33 366.463 1557.07 366.463 1555.53C366.463 1553.98 367.722 1552.72 369.264 1552.72C370.807 1552.72 372.066 1553.97 372.066 1555.53Z" fill="white" fill-opacity="0.21"/>
<path d="M336.794 1477.87C336.794 1479.42 335.535 1480.67 333.992 1480.67C332.449 1480.67 331.19 1479.42 331.19 1477.87C331.19 1476.33 332.449 1475.07 333.992 1475.07C335.547 1475.07 336.794 1476.33 336.794 1477.87Z" fill="white" fill-opacity="0.21"/>
<path d="M581.774 1518.7C581.774 1521.81 579.244 1524.34 576.134 1524.34C573.024 1524.34 570.494 1521.81 570.494 1518.7C570.494 1515.59 573.024 1513.06 576.134 1513.06C579.244 1513.06 581.774 1515.59 581.774 1518.7Z" fill="white" fill-opacity="0.21"/>
<path d="M611.394 1567.55C611.394 1569.09 610.135 1570.35 608.592 1570.35C607.05 1570.35 605.791 1569.09 605.791 1567.55C605.791 1566 607.05 1564.75 608.592 1564.75C610.148 1564.76 611.394 1566 611.394 1567.55Z" fill="white" fill-opacity="0.21"/>
<path d="M654.207 1524.34C654.207 1525.88 652.948 1527.14 651.405 1527.14C649.863 1527.14 648.604 1525.88 648.604 1524.34C648.604 1522.8 649.863 1521.54 651.405 1521.54C652.948 1521.54 654.207 1522.8 654.207 1524.34Z" fill="white" fill-opacity="0.21"/>
<path d="M736.908 1531.88C738.455 1531.88 739.71 1530.62 739.71 1529.08C739.71 1527.53 738.455 1526.28 736.908 1526.28C735.361 1526.28 734.106 1527.53 734.106 1529.08C734.106 1530.62 735.361 1531.88 736.908 1531.88Z" fill="white" fill-opacity="0.21"/>
<path d="M827.286 1563.02C827.286 1564.56 826.027 1565.82 824.484 1565.82C822.942 1565.82 821.683 1564.56 821.683 1563.02C821.683 1561.47 822.942 1560.22 824.484 1560.22C826.039 1560.23 827.286 1561.47 827.286 1563.02Z" fill="white" fill-opacity="0.21"/>
<g filter="url(#filter0_f_539_1585)">
<circle cx="82.8214" cy="1333.32" r="122.218" fill="#8136CB"/>
</g>
<g filter="url(#filter1_f_539_1585)">
<circle cx="82.8214" cy="1333.32" r="122.218" fill="white"/>
</g>
<g filter="url(#filter2_b_539_1585)">
<g filter="url(#filter3_f_539_1585)">
<circle cx="82.4494" cy="1332.95" r="122.449" fill="white"/>
</g>
<g filter="url(#filter4_f_539_1585)">
<circle cx="82.4494" cy="1332.95" r="122.449" fill="white"/>
</g>
<g filter="url(#filter5_f_539_1585)">
<path fill-rule="evenodd" clip-rule="evenodd" d="M59.4089 1421.2C127.036 1421.2 181.858 1366.37 181.858 1298.75C181.858 1280.14 177.709 1262.51 170.286 1246.71C192.356 1268.86 206 1299.41 206 1333.15C206 1400.78 151.177 1455.6 83.5505 1455.6C34.5282 1455.6 -7.76563 1426.79 -27.3262 1385.18C-5.15542 1407.43 25.5189 1421.2 59.4089 1421.2Z" fill="#E2DBEF" fill-opacity="0.33"/>
</g>
<ellipse cx="2.49198" cy="1294.67" rx="19.628" ry="33.6714" transform="rotate(20.1736 2.49198 1294.67)" fill="#D8D8D8" fill-opacity="0.18"/>
<path fill-rule="evenodd" clip-rule="evenodd" d="M15.4882 1263.49C6.10662 1263.66 -4.6513 1274 -10.1805 1289.05C-16.247 1305.56 -13.846 1321.83 -4.95603 1326.7C-6.45597 1326.73 -7.92074 1326.5 -9.32332 1325.98C-19.4985 1322.24 -22.5483 1305.06 -16.1351 1287.61C-9.72188 1270.15 3.72567 1259.03 13.9009 1262.77C14.4509 1262.97 14.9802 1263.22 15.4882 1263.49Z" fill="#D0D0D0" fill-opacity="0.68"/>
<ellipse cx="17.8375" cy="1398.87" rx="12.2694" ry="21.0479" transform="rotate(-56.7497 17.8375 1398.87)" fill="#D8D8D8" fill-opacity="0.39"/>
<path fill-rule="evenodd" clip-rule="evenodd" d="M0.694717 1386.54C-0.530783 1392.28 4.24366 1400.29 12.6259 1405.79C21.8205 1411.82 32.063 1412.66 36.2894 1407.94C36.0936 1408.85 35.7447 1409.71 35.2329 1410.49C31.5176 1416.16 20.625 1415.58 10.9037 1409.21C1.1824 1402.84 -3.68636 1393.08 0.0290217 1387.41C0.230299 1387.1 0.45264 1386.81 0.694717 1386.54Z" fill="#D0D0D0" fill-opacity="0.5"/>
<g filter="url(#filter6_f_539_1585)">
<ellipse cx="150.676" cy="1376.78" rx="21.138" ry="23.9945" transform="rotate(12.7386 150.676 1376.78)" fill="#FBF9FF"/>
<path fill-rule="evenodd" clip-rule="evenodd" d="M168.713 1389.02C163.573 1395.52 155.648 1398.93 147.824 1397.16C136.437 1394.59 129.575 1382.02 132.497 1369.1C133.083 1366.5 134.018 1364.09 135.231 1361.92C132.89 1364.88 131.126 1368.48 130.212 1372.52C127.29 1385.45 134.152 1398.01 145.538 1400.59C154.642 1402.64 163.881 1397.69 168.713 1389.02Z" fill="#F0EBFA"/>
</g>
<g filter="url(#filter7_f_539_1585)">
<ellipse cx="79.1767" cy="1293.14" rx="40.1127" ry="36.77" fill="#FBF9FF"/>
<path fill-rule="evenodd" clip-rule="evenodd" d="M75.952 1325.03C98.1057 1325.03 116.065 1308.57 116.065 1288.26C116.065 1281.51 114.078 1275.18 110.611 1269.74C116.115 1276.04 119.408 1284.03 119.408 1292.72C119.408 1313.03 101.448 1329.49 79.2948 1329.49C64.5094 1329.49 51.5924 1322.16 44.6356 1311.24C51.9868 1319.65 63.2836 1325.03 75.952 1325.03Z" fill="#F5F1FC"/>
</g>
</g>
<path d="M1302.62 274.809C1302.62 277.461 1300.46 279.618 1297.81 279.618C1295.16 279.618 1293 277.461 1293 274.809C1293 272.157 1295.16 270 1297.81 270C1300.47 270.011 1302.62 272.157 1302.62 274.809Z" fill="white" fill-opacity="0.1"/>
<path d="M1152.23 616.081C1152.23 618.733 1150.07 620.89 1147.42 620.89C1144.77 620.89 1142.61 618.733 1142.61 616.081C1142.61 613.43 1144.77 611.272 1147.42 611.272C1150.09 611.272 1152.23 613.43 1152.23 616.081Z" fill="white" fill-opacity="0.1"/>
<path d="M832.458 824.661C832.458 827.313 830.301 829.47 827.649 829.47C824.998 829.47 822.84 827.313 822.84 824.661C822.84 822.01 824.998 819.852 827.649 819.852C830.301 819.852 832.458 822.01 832.458 824.661Z" fill="white" fill-opacity="0.1"/>
<path d="M1255.42 716.625C1255.42 719.277 1253.26 721.434 1250.61 721.434C1247.96 721.434 1245.8 719.277 1245.8 716.625C1245.8 713.974 1247.96 711.816 1250.61 711.816C1253.27 711.816 1255.42 713.963 1255.42 716.625Z" fill="white" fill-opacity="0.1"/>
<path d="M1265.04 649.322C1265.04 651.973 1262.88 654.13 1260.23 654.13C1257.57 654.13 1255.42 651.973 1255.42 649.322C1255.42 646.67 1257.57 644.513 1260.23 644.513C1262.88 644.523 1265.04 646.67 1265.04 649.322Z" fill="white" fill-opacity="0.1"/>
<path d="M1334.02 532.351C1334.02 535.003 1331.86 537.16 1329.21 537.16C1326.56 537.16 1324.4 535.003 1324.4 532.351C1324.4 529.7 1326.56 527.542 1329.21 527.542C1331.86 527.542 1334.02 529.689 1334.02 532.351Z" fill="white" fill-opacity="0.1"/>
<path d="M929.435 574.674C929.435 577.326 927.278 579.483 924.627 579.483C921.975 579.483 919.818 577.326 919.818 574.674C919.818 572.022 921.975 569.865 924.627 569.865C927.289 569.865 929.435 572.022 929.435 574.674Z" fill="white" fill-opacity="0.1"/>
<path d="M858.291 489.809C858.291 492.461 856.134 494.618 853.483 494.618C850.831 494.618 848.674 492.461 848.674 489.809C848.674 487.157 850.831 485 853.483 485C856.145 485 858.291 487.157 858.291 489.809Z" fill="white" fill-opacity="0.1"/>
<path d="M934.244 504.194C934.244 506.845 932.087 509.002 929.435 509.002C926.783 509.002 924.626 506.845 924.626 504.194C924.626 501.542 926.783 499.385 929.435 499.385C932.087 499.385 934.244 501.542 934.244 504.194Z" fill="white" fill-opacity="0.1"/>
<path d="M907.958 625.541C907.958 628.193 905.801 630.35 903.15 630.35C900.498 630.35 898.341 628.193 898.341 625.541C898.341 622.89 900.498 620.732 903.15 620.732C905.812 620.732 907.958 622.89 907.958 625.541Z" fill="white" fill-opacity="0.1"/>
<path d="M797.618 620.732C797.618 623.384 795.461 625.541 792.809 625.541C790.157 625.541 788 623.394 788 620.732C788 618.08 790.157 615.923 792.809 615.923C795.461 615.923 797.618 618.08 797.618 620.732Z" fill="white" fill-opacity="0.1"/>
<path d="M888.481 811.035C888.481 812.35 887.408 813.424 886.093 813.424C884.777 813.424 883.704 812.35 883.704 811.035C883.704 809.72 884.777 808.646 886.093 808.646C887.408 808.646 888.481 809.72 888.481 811.035Z" fill="white" fill-opacity="0.1"/>
<path d="M1111.26 829.47C1111.26 830.786 1110.18 831.859 1108.87 831.859C1107.55 831.859 1106.48 830.786 1106.48 829.47C1106.48 828.155 1107.55 827.082 1108.87 827.082C1110.19 827.082 1111.26 828.155 1111.26 829.47Z" fill="white" fill-opacity="0.1"/>
<path d="M1163.78 294.389C1163.78 295.704 1162.7 296.777 1161.39 296.777C1160.07 296.777 1159 295.704 1159 294.389C1159 293.073 1160.07 292 1161.39 292C1162.7 292 1163.78 293.073 1163.78 294.389Z" fill="white" fill-opacity="0.1"/>
<path d="M1201.78 499.384C1203.1 499.384 1204.17 498.315 1204.17 496.996C1204.17 495.676 1203.1 494.607 1201.78 494.607C1200.46 494.607 1199.39 495.676 1199.39 496.996C1199.39 498.315 1200.46 499.384 1201.78 499.384Z" fill="white" fill-opacity="0.1"/>
<path d="M797.586 716.625C797.586 717.941 796.513 719.014 795.197 719.014C793.882 719.014 792.809 717.941 792.809 716.625C792.809 715.31 793.882 714.237 795.197 714.237C796.513 714.237 797.586 715.3 797.586 716.625Z" fill="white" fill-opacity="0.1"/>
<path d="M843.875 679.743C843.875 681.058 842.802 682.131 841.487 682.131C840.171 682.131 839.098 681.058 839.098 679.743C839.098 678.427 840.171 677.354 841.487 677.354C842.802 677.354 843.875 678.427 843.875 679.743Z" fill="white" fill-opacity="0.1"/>
<path d="M813.812 613.545C813.812 614.86 812.739 615.934 811.424 615.934C810.108 615.934 809.035 614.86 809.035 613.545C809.035 612.23 810.108 611.156 811.424 611.156C812.739 611.156 813.812 612.219 813.812 613.545Z" fill="white" fill-opacity="0.1"/>
<path d="M1065.78 432.389C1065.78 433.704 1064.7 434.777 1063.39 434.777C1062.07 434.777 1061 433.704 1061 432.389C1061 431.073 1062.07 430 1063.39 430C1064.71 430 1065.78 431.073 1065.78 432.389Z" fill="white" fill-opacity="0.1"/>
<path d="M1212.67 743.174C1212.67 744.489 1211.6 745.563 1210.29 745.563C1208.97 745.563 1207.9 744.489 1207.9 743.174C1207.9 741.859 1208.97 740.785 1210.29 740.785C1211.6 740.785 1212.67 741.859 1212.67 743.174Z" fill="white" fill-opacity="0.1"/>
<path d="M1090.12 750.34C1090.12 751.655 1089.04 752.728 1087.73 752.728C1086.41 752.728 1085.34 751.655 1085.34 750.34C1085.34 749.024 1086.41 747.951 1087.73 747.951C1089.04 747.951 1090.12 749.014 1090.12 750.34Z" fill="white" fill-opacity="0.1"/>
<path d="M1424.71 695.759C1424.71 697.074 1423.63 698.147 1422.32 698.147C1421 698.147 1419.93 697.074 1419.93 695.759C1419.93 694.443 1421 693.37 1422.32 693.37C1423.63 693.37 1424.71 694.433 1424.71 695.759Z" fill="white" fill-opacity="0.1"/>
<path d="M1350.91 611.156C1350.91 612.472 1349.84 613.545 1348.52 613.545C1347.21 613.545 1346.13 612.472 1346.13 611.156C1346.13 609.841 1347.21 608.768 1348.52 608.768C1349.84 608.768 1350.91 609.83 1350.91 611.156Z" fill="white" fill-opacity="0.1"/>
<path d="M1145.39 594.777C1146.71 594.777 1147.78 593.708 1147.78 592.389C1147.78 591.069 1146.71 590 1145.39 590C1144.07 590 1143 591.069 1143 592.389C1143 593.708 1144.07 594.777 1145.39 594.777Z" fill="white" fill-opacity="0.1"/>
<path d="M1231.78 395.389C1231.78 396.704 1230.7 397.777 1229.39 397.777C1228.07 397.777 1227 396.704 1227 395.389C1227 394.073 1228.07 393 1229.39 393C1230.7 393 1231.78 394.073 1231.78 395.389Z" fill="white" fill-opacity="0.1"/>
<path d="M1009.46 747.951C1009.46 749.266 1008.39 750.34 1007.07 750.34C1005.76 750.34 1004.68 749.266 1004.68 747.951C1004.68 746.636 1005.76 745.562 1007.07 745.562C1008.4 745.562 1009.46 746.636 1009.46 747.951Z" fill="white" fill-opacity="0.1"/>
<path d="M869.866 747.951C871.185 747.951 872.255 746.882 872.255 745.563C872.255 744.244 871.185 743.174 869.866 743.174C868.547 743.174 867.478 744.244 867.478 745.563C867.478 746.882 868.547 747.951 869.866 747.951Z" fill="white" fill-opacity="0.1"/>
<path d="M1409.62 424.809C1409.62 427.461 1407.46 429.618 1404.81 429.618C1402.16 429.618 1400 427.461 1400 424.809C1400 422.157 1402.16 420 1404.81 420C1407.46 420 1409.62 422.157 1409.62 424.809Z" fill="white" fill-opacity="0.1"/>
<path d="M1399.69 658.182C1399.69 659.498 1398.62 660.571 1397.31 660.571C1395.99 660.571 1394.92 659.498 1394.92 658.182C1394.92 656.867 1395.99 655.794 1397.31 655.794C1398.63 655.794 1399.69 656.856 1399.69 658.182Z" fill="white" fill-opacity="0.1"/>
<path d="M1415.93 555.102C1415.93 556.418 1414.86 557.491 1413.54 557.491C1412.23 557.491 1411.15 556.418 1411.15 555.102C1411.15 553.787 1412.23 552.714 1413.54 552.714C1414.86 552.714 1415.93 553.777 1415.93 555.102Z" fill="white" fill-opacity="0.1"/>
<path d="M1035.62 208.809C1035.62 211.461 1033.46 213.618 1030.81 213.618C1028.16 213.618 1026 211.461 1026 208.809C1026 206.157 1028.16 204 1030.81 204C1033.47 204 1035.62 206.157 1035.62 208.809Z" fill="white" fill-opacity="0.1"/>
<path d="M1353.33 856.661C1353.33 859.313 1351.17 861.47 1348.52 861.47C1345.87 861.47 1343.71 859.313 1343.71 856.661C1343.71 854.009 1345.87 851.852 1348.52 851.852C1351.17 851.863 1353.33 854.009 1353.33 856.661Z" fill="white" fill-opacity="0.1"/>
<path d="M1378.59 898.32C1378.59 899.636 1377.51 900.709 1376.2 900.709C1374.88 900.709 1373.81 899.636 1373.81 898.32C1373.81 897.005 1374.88 895.932 1376.2 895.932C1377.52 895.932 1378.59 897.005 1378.59 898.32Z" fill="white" fill-opacity="0.1"/>
<path d="M1415.09 861.47C1415.09 862.785 1414.02 863.858 1412.7 863.858C1411.38 863.858 1410.31 862.785 1410.31 861.47C1410.31 860.154 1411.38 859.081 1412.7 859.081C1414.02 859.081 1415.09 860.154 1415.09 861.47Z" fill="white" fill-opacity="0.1"/>
<path d="M1330.78 873.813C1330.78 875.128 1329.71 876.201 1328.39 876.201C1327.08 876.201 1326 875.128 1326 873.813C1326 872.497 1327.08 871.424 1328.39 871.424C1329.72 871.424 1330.78 872.497 1330.78 873.813Z" fill="white" fill-opacity="0.1"/>
<path d="M1387.94 822.325C1387.94 824.977 1385.78 827.134 1383.13 827.134C1380.48 827.134 1378.32 824.977 1378.32 822.325C1378.32 819.674 1380.48 817.516 1383.13 817.516C1385.78 817.516 1387.94 819.674 1387.94 822.325Z" fill="white" fill-opacity="0.1"/>
<path d="M976.651 976.988C976.651 978.304 975.578 979.377 974.262 979.377C972.947 979.377 971.874 978.304 971.874 976.988C971.874 975.673 972.947 974.6 974.262 974.6C975.578 974.6 976.651 975.673 976.651 976.988Z" fill="white" fill-opacity="0.1"/>
<path d="M892.343 989.331C892.343 990.646 891.27 991.719 889.954 991.719C888.639 991.719 887.566 990.646 887.566 989.331C887.566 988.015 888.639 986.942 889.954 986.942C891.27 986.942 892.343 988.015 892.343 989.331Z" fill="white" fill-opacity="0.1"/>
<path d="M1049.58 885.146C1049.58 887.798 1047.43 889.955 1044.77 889.955C1042.12 889.955 1039.97 887.798 1039.97 885.146C1039.97 882.495 1042.12 880.337 1044.77 880.337C1047.44 880.337 1049.58 882.495 1049.58 885.146Z" fill="white" fill-opacity="0.1"/>
<path d="M1049.55 981.029C1049.55 982.344 1048.48 983.417 1047.16 983.417C1045.85 983.417 1044.77 982.344 1044.77 981.029C1044.77 979.713 1045.85 978.64 1047.16 978.64C1048.49 978.651 1049.55 979.713 1049.55 981.029Z" fill="white" fill-opacity="0.1"/>
<path d="M1095.85 944.157C1095.85 945.473 1094.78 946.546 1093.46 946.546C1092.15 946.546 1091.07 945.473 1091.07 944.157C1091.07 942.842 1092.15 941.769 1093.46 941.769C1094.78 941.769 1095.85 942.831 1095.85 944.157Z" fill="white" fill-opacity="0.1"/>
<path d="M1065.78 877.948C1065.78 879.264 1064.7 880.337 1063.39 880.337C1062.07 880.337 1061 879.264 1061 877.948C1061 876.633 1062.07 875.56 1063.39 875.56C1064.71 875.56 1065.78 876.633 1065.78 877.948Z" fill="white" fill-opacity="0.1"/>
<path d="M1274.65 912.758C1274.65 915.409 1272.5 917.566 1269.84 917.566C1267.19 917.566 1265.03 915.409 1265.03 912.758C1265.03 910.106 1267.19 907.949 1269.84 907.949C1272.5 907.949 1274.65 910.106 1274.65 912.758Z" fill="white" fill-opacity="0.1"/>
<path d="M1299.91 954.406C1299.91 955.722 1298.83 956.795 1297.52 956.795C1296.2 956.795 1295.13 955.722 1295.13 954.406C1295.13 953.091 1296.2 952.018 1297.52 952.018C1298.84 952.028 1299.91 953.091 1299.91 954.406Z" fill="white" fill-opacity="0.1"/>
<path d="M1336.41 917.567C1336.41 918.882 1335.34 919.955 1334.02 919.955C1332.71 919.955 1331.63 918.882 1331.63 917.567C1331.63 916.251 1332.71 915.178 1334.02 915.178C1335.34 915.178 1336.41 916.251 1336.41 917.567Z" fill="white" fill-opacity="0.1"/>
<path d="M1406.92 923.996C1408.24 923.996 1409.31 922.926 1409.31 921.607C1409.31 920.288 1408.24 919.218 1406.92 919.218C1405.6 919.218 1404.53 920.288 1404.53 921.607C1404.53 922.926 1405.6 923.996 1406.92 923.996Z" fill="white" fill-opacity="0.1"/>
<g opacity="0.7">
<path d="M1133.77 1057.48C1208.29 1096.21 1239.88 1153.57 1246.36 1177.41H1260.3C1221.42 1008.34 1013.47 959.557 975.329 950.389C944.816 943.054 908.092 920.682 893.544 910.413H800.755C855.035 1002.47 1040.61 1009.07 1133.77 1057.48Z" fill="#100427"/>
<path d="M794.521 1162.74C772.222 1118.43 745.62 1090.98 735.107 1082.79C743.615 1154.38 786.574 1216.77 806.99 1239.02H798.555C854.301 1312.74 962.493 1304.3 981.564 1304.3C996.821 1304.3 1079.12 1270.56 1118.36 1253.69C1118.36 1260.29 1130.47 1265.8 1134.87 1270.2C1138.39 1273.72 1140.49 1291.22 1141.1 1299.54C1134.35 1321.54 1081.57 1372.03 1056.02 1394.53H1084.25C1095.99 1376.33 1148.31 1340.49 1173.01 1324.84L1178.14 1307.97C1188.12 1313.55 1205.04 1307.85 1212.25 1304.3C1210.78 1327.48 1172.28 1380.96 1153.2 1404.79H1184.01C1195.75 1364.45 1246.73 1331.81 1249.29 1316.41C1251.86 1301 1243.79 1307.97 1246.73 1295.14C1249.07 1284.87 1265.55 1284.99 1273.5 1286.33C1270.2 1292.2 1276.8 1303.94 1279.37 1342.45C1281.42 1373.25 1274.35 1400.52 1270.57 1410.3H1294.4C1297.92 1404.72 1303.7 1345.38 1306.14 1316.41L1349.78 1404.79L1384.99 1401.13C1364.75 1382.64 1345.5 1340.12 1338.41 1321.18C1379.86 1281.2 1331.45 1226.92 1324.48 1220.69C1317.51 1214.45 1298.44 1203.45 1276.8 1179.98C1259.49 1161.2 1222.4 1167.02 1206.02 1172.27C1219.59 1153.81 1246.73 1114.47 1246.73 1104.79C1246.73 1092.69 1253.69 1079.12 1251.86 1075.82C1250.39 1073.18 1247.83 1062.98 1246.73 1058.21C1242.69 1073.25 1229.49 1106.99 1208.95 1121.66C1188.41 1136.33 1179.37 1170.07 1177.41 1185.11C1170.81 1185.48 1160.54 1191.34 1153.94 1191.71C1148.66 1192.01 1137.8 1193.79 1133.03 1194.65C1130.71 1187.07 1122.62 1169.19 1108.83 1158.34C1091.59 1144.77 1080.22 1110.66 1075.45 1085.35C1071.64 1065.11 1064.08 1051.98 1060.78 1047.94C1057.12 1055.65 1063.72 1098.56 1064.45 1131.56C1065.18 1164.57 1073.62 1182.91 1096.36 1198.68C1114.55 1211.3 1116.41 1218.61 1115.06 1220.69C964.694 1284.87 822.394 1218.12 794.521 1162.74Z" fill="#100427"/>
<path d="M1037.68 1170.81C1135.09 1135.01 1202.96 1155.89 1224.72 1170.81H1240.49C1156.51 1080.59 984.865 1156.87 892.81 1164.21C819.166 1170.07 754.789 1122.64 731.806 1098.19L757.5 1142.5C848 1287 915.916 1215.55 1037.68 1170.81Z" fill="#100427"/>
<path d="M956.992 1096.36C1063.5 1078.46 1187.43 1134.13 1236.09 1164.21L1233.16 1169.71C970.928 1084.99 912.248 1173.74 811.758 1211.88C731.366 1242.4 709 1235 699.5 1215.5L682 1163C782.49 1180.97 823.861 1118.73 956.992 1096.36Z" fill="#100427"/>
<path d="M1234.26 1002.47C1192.01 967.553 1168 919.5 1184.01 895.376L1243 813C1230.9 835.616 1245.77 937.699 1291.84 991.098C1349.42 1057.85 1336.58 1096.36 1308.71 1132.66C1286.41 1161.71 1278.14 1183.89 1276.8 1191.34H1270.57C1272.64 1181.44 1279.81 1151.96 1291.84 1113.23C1306.87 1064.82 1287.07 1046.11 1234.26 1002.47Z" fill="#100427"/>
<path d="M1365.19 1102.96C1327.93 1132 1293.18 1175.7 1280.47 1193.91V1211.88C1304.67 1166.41 1342.82 1149.54 1377.29 1121.66C1411.76 1093.79 1460.18 1051.61 1485.12 1005.03C1505.07 967.773 1507.12 921.293 1505.65 902.711L1485.12 844C1501.62 918.084 1411.76 1066.65 1365.19 1102.96Z" fill="#100427"/>
<path d="M1423.87 1122.4C1344.36 1138.83 1290.25 1184.5 1273.13 1205.28C1304.43 1183.61 1380.08 1139.85 1432.3 1138.17C1484.53 1136.48 1540.86 1126.95 1562.5 1122.4V1054.55C1549.42 1070.32 1503.38 1105.97 1423.87 1122.4Z" fill="#100427"/>
<path d="M1401.5 1268.36C1388 1253.99 1320.81 1212.25 1288.9 1193.18L1299.17 1211.88C1417.41 1328.95 1520.81 1343.06 1557.73 1335.48V1261.03C1523.99 1294.4 1418.37 1286.33 1401.5 1268.36Z" fill="#100427"/>
<path d="M1371.79 1161.64C1317.51 1160.17 1280.22 1184.5 1268.36 1196.85C1302.4 1181.3 1344.16 1181.08 1360.79 1182.91C1447.34 1199.93 1530.1 1182.67 1560.67 1171.91V1109.56C1520.32 1127.53 1426.07 1163.11 1371.79 1161.64Z" fill="#100427"/>
<path d="M1177.78 1218.12C1172.5 1221.05 1172.89 1226.92 1173.74 1229.49C1175.58 1225.45 1182.91 1228.02 1187.68 1220.32C1191.49 1214.16 1189.27 1207.97 1187.68 1205.65C1188.05 1208.58 1184.38 1214.45 1177.78 1218.12Z" fill="#A752D0"/>
<path d="M1148.3 1226.41C1154.28 1225.56 1157.5 1230.48 1158.37 1233.05C1154.47 1230.93 1150.17 1237.4 1141.72 1234.13C1134.96 1231.51 1133.01 1225.23 1132.88 1222.42C1134.36 1224.98 1140.82 1227.46 1148.3 1226.41Z" fill="#A752D0"/>
</g>
<path d="M71.9248 1302.24L-75.1528 1365.43V1698.81H1499.12V1416.64L1419.59 1387.22L1292.12 1406.83L1237.65 1378.5H1150.49L1077.5 1350.18L1041.55 1305.51L894.47 1249.95L835.639 1255.39L540.394 1316.4L283.281 1244.5L177.603 1302.24H71.9248Z" fill="#100427"/>
<path d="M191 1699L-98.0318 1578.96L-122 1602.93L82.5 1699H191Z" fill="url(#paint0_linear_539_1585)"/>
<path d="M3.28838 1510.33L-98.0317 1425.35L-89.316 1502.7L3.28838 1546.28L166.708 1629.08L205.929 1617.1L3.28838 1510.33Z" fill="url(#paint1_linear_539_1585)"/>
<path d="M1349.16 1473.18L1128 1440.5L1149.79 1490.62C1195.55 1497.52 1290.77 1512.4 1305.58 1516.76C1320.4 1521.12 1340.81 1551.99 1349.16 1566.88C1396.01 1588.3 1492.1 1633.77 1501.69 1644.23C1511.27 1654.69 1519.48 1624.62 1522.39 1608.28L1349.16 1473.18Z" fill="url(#paint2_linear_539_1585)"/>
<path d="M955.496 1465.55L798.613 1367.5L745 1384.22L798.613 1476.45L1026.31 1543.99H1143.97L955.496 1465.55Z" fill="url(#paint3_linear_539_1585)"/>
<path d="M342.251 1407.78L219.141 1343.5L493.686 1407.78L949.082 1630.03L1060.21 1586.45L1369.61 1620.22L1419.73 1599.52L1500.35 1630.03V1700.84H359.682L366.219 1655.09L240.93 1586.45L120 1473.15L446.839 1630.03L328.088 1518.9V1493.85L366.219 1479.68L371.666 1443.73L342.251 1407.78Z" fill="url(#paint4_linear_539_1585)"/>
<defs>
<filter id="filter0_f_539_1585" x="-199.94" y="1050.56" width="565.522" height="565.522" filterUnits="userSpaceOnUse" color-interpolation-filters="sRGB">
<feFlood flood-opacity="0" result="BackgroundImageFix"/>
<feBlend mode="normal" in="SourceGraphic" in2="BackgroundImageFix" result="shape"/>
<feGaussianBlur stdDeviation="80.2715" result="effect1_foregroundBlur_539_1585"/>
</filter>
<filter id="filter1_f_539_1585" x="-49.0532" y="1201.45" width="263.749" height="263.749" filterUnits="userSpaceOnUse" color-interpolation-filters="sRGB">
<feFlood flood-opacity="0" result="BackgroundImageFix"/>
<feBlend mode="normal" in="SourceGraphic" in2="BackgroundImageFix" result="shape"/>
<feGaussianBlur stdDeviation="4.82836" result="effect1_foregroundBlur_539_1585"/>
</filter>
<filter id="filter2_b_539_1585" x="-68.0912" y="1182.41" width="302.182" height="301.281" filterUnits="userSpaceOnUse" color-interpolation-filters="sRGB">
<feFlood flood-opacity="0" result="BackgroundImageFix"/>
<feGaussianBlur in="BackgroundImage" stdDeviation="14.0456"/>
<feComposite in2="SourceAlpha" operator="in" result="effect1_backgroundBlur_539_1585"/>
<feBlend mode="normal" in="SourceGraphic" in2="effect1_backgroundBlur_539_1585" result="shape"/>
</filter>
<filter id="filter3_f_539_1585" x="-44.2248" y="1206.28" width="253.348" height="253.348" filterUnits="userSpaceOnUse" color-interpolation-filters="sRGB">
<feFlood flood-opacity="0" result="BackgroundImageFix"/>
<feBlend mode="normal" in="SourceGraphic" in2="BackgroundImageFix" result="shape"/>
<feGaussianBlur stdDeviation="2.11241" result="effect1_foregroundBlur_539_1585"/>
</filter>
<filter id="filter4_f_539_1585" x="-44.2248" y="1206.28" width="253.348" height="253.348" filterUnits="userSpaceOnUse" color-interpolation-filters="sRGB">
<feFlood flood-opacity="0" result="BackgroundImageFix"/>
<feBlend mode="normal" in="SourceGraphic" in2="BackgroundImageFix" result="shape"/>
<feGaussianBlur stdDeviation="2.11241" result="effect1_foregroundBlur_539_1585"/>
</filter>
<filter id="filter5_f_539_1585" x="-31.551" y="1242.49" width="241.776" height="217.333" filterUnits="userSpaceOnUse" color-interpolation-filters="sRGB">
<feFlood flood-opacity="0" result="BackgroundImageFix"/>
<feBlend mode="normal" in="SourceGraphic" in2="BackgroundImageFix" result="shape"/>
<feGaussianBlur stdDeviation="2.11241" result="effect1_foregroundBlur_539_1585"/>
</filter>
<filter id="filter6_f_539_1585" x="126.457" y="1349.98" width="48.4388" height="53.9984" filterUnits="userSpaceOnUse" color-interpolation-filters="sRGB">
<feFlood flood-opacity="0" result="BackgroundImageFix"/>
<feBlend mode="normal" in="SourceGraphic" in2="BackgroundImageFix" result="shape"/>
<feGaussianBlur stdDeviation="1.46426" result="effect1_foregroundBlur_539_1585"/>
</filter>
<filter id="filter7_f_539_1585" x="36.2081" y="1253.51" width="86.0553" height="79.2517" filterUnits="userSpaceOnUse" color-interpolation-filters="sRGB">
<feFlood flood-opacity="0" result="BackgroundImageFix"/>
<feBlend mode="normal" in="SourceGraphic" in2="BackgroundImageFix" result="shape"/>
<feGaussianBlur stdDeviation="1.42793" result="effect1_foregroundBlur_539_1585"/>
</filter>
<linearGradient id="paint0_linear_539_1585" x1="45.7774" y1="1578.96" x2="45.7774" y2="1722.77" gradientUnits="userSpaceOnUse">
<stop stop-color="#8038CC" stop-opacity="0.47"/>
<stop offset="1" stop-color="#100427"/>
</linearGradient>
<linearGradient id="paint1_linear_539_1585" x1="53.9484" y1="1425.35" x2="53.9484" y2="1629.08" gradientUnits="userSpaceOnUse">
<stop stop-color="#8038CC" stop-opacity="0.47"/>
<stop offset="1" stop-color="#100427"/>
</linearGradient>
<linearGradient id="paint2_linear_539_1585" x1="1136.89" y1="1464.9" x2="1435.89" y2="1599.4" gradientUnits="userSpaceOnUse">
<stop stop-color="#8038CC" stop-opacity="0"/>
<stop offset="1" stop-color="#100427"/>
</linearGradient>
<linearGradient id="paint3_linear_539_1585" x1="751.5" y1="1402.22" x2="1055" y2="1543.72" gradientUnits="userSpaceOnUse">
<stop stop-color="#8038CC" stop-opacity="0"/>
<stop offset="0.501739" stop-color="#56258F" stop-opacity="0.69"/>
<stop offset="1" stop-color="#100427"/>
</linearGradient>
<linearGradient id="paint4_linear_539_1585" x1="409" y1="1546" x2="1116.5" y2="1700.5" gradientUnits="userSpaceOnUse">
<stop stop-color="#8038CC" stop-opacity="0.21"/>
<stop offset="1" stop-color="#100427"/>
</linearGradient>
</defs>
</svg>
