<svg width="191" height="191" viewBox="0 0 191 191" fill="none" xmlns="http://www.w3.org/2000/svg">
<mask id="mask0_450_371" style="mask-type:alpha" maskUnits="userSpaceOnUse" x="0" y="0" width="191" height="191">
<rect width="191" height="191" rx="48" fill="#3D4FF6"/>
</mask>
<g mask="url(#mask0_450_371)">
<path fill-rule="evenodd" clip-rule="evenodd" d="M62.1433 59.7426C61.0615 61.8159 64.218 74.8018 65.7797 80.0334C65.4167 79.9848 65.0385 79.9638 64.6645 79.9859C63.5925 80.0494 62.4014 80.4923 61.885 81.826C61.3133 83.3026 61.7153 84.9555 62.2082 86.3919C62.3797 86.8917 62.5758 87.4007 62.7629 87.8859L62.763 87.8862C62.8482 88.1074 62.9316 88.3236 63.0098 88.5317C63.2673 89.2169 63.4769 89.8328 63.5856 90.3806C63.8417 91.6718 64.6308 92.7136 65.3086 93.6084C65.3716 93.6916 65.4336 93.7734 65.4941 93.8541C66.2465 94.8568 66.824 95.7288 66.8874 96.8216C66.9659 98.1744 67.2303 99.6851 67.9163 100.714C68.2717 101.246 68.7678 101.69 69.4398 101.872C70.0206 102.029 70.6506 101.969 71.3143 101.719C71.6978 102.958 72.1104 104.188 72.5531 105.389C73.2764 107.351 74.5347 109.161 76.1261 110.808C76.1844 117.328 75.0595 125.343 74.4653 126.695C74.0072 127.737 70.7276 128.948 67.0801 130.005C67.046 129.912 66.973 129.833 66.8786 129.835C63.2805 129.927 56.0255 131.034 53.1648 134.817C53.0785 134.931 53.171 135.092 53.3139 135.085L53.315 135.085C51.4453 135.744 49.8569 136.722 48.7807 137.439C43.7519 137.868 39.3407 139.095 36.3276 141.425C30.8305 142.817 25.6725 144.878 21.257 147.725C11.9152 152.86 -0.800251 165.887 -0.716383 190.572C-2.7168 195.745 -6.56035 207.673 -5.93126 213.997H38.0934L38.072 214.148C38.0631 214.211 38.0542 214.272 38.0453 214.333C37.979 214.785 38.2919 215.206 38.7442 215.272C39.1965 215.338 39.617 215.025 39.6833 214.573C39.694 214.5 39.7047 214.426 39.7153 214.351C39.7318 214.236 39.7483 214.118 39.7648 213.997H97.8895C102.128 217.889 106.047 221.482 109.275 224.44C109.488 224.634 109.792 224.663 110.041 224.517C114.906 221.675 119.577 218.045 123.958 213.997H159.966L159.965 214.018C159.954 214.475 160.315 214.855 160.772 214.867C161.229 214.878 161.609 214.517 161.62 214.06L161.622 213.997H196C194.841 209.348 191.605 198.725 187.929 193.428C188.539 180.067 183.981 152.495 161.512 145.066C158.468 142.156 151.15 140.686 147.501 140.286C147.444 140.28 147.396 140.244 147.371 140.193C145.712 136.882 140.547 136.668 138.024 136.989C137.945 137 137.871 136.951 137.843 136.877C136.989 134.626 134.155 134.359 132.446 134.54C132.287 134.557 132.154 134.334 132.206 134.183C132.302 133.902 132.29 133.557 131.949 133.259C130.131 131.575 124.68 130.723 121.626 130.692C118.725 128.872 115.871 126.894 115.47 125.585C115.034 124.161 114.36 118.256 113.995 112.543C117.089 110.089 119.45 107.526 120.013 105.389C120.26 104.449 120.523 103.142 120.789 101.604C121.487 101.775 122.126 101.759 122.689 101.528C123.333 101.264 123.77 100.762 124.057 100.19C124.61 99.0838 124.684 97.552 124.594 96.1999C124.521 95.1077 124.986 94.1707 125.608 93.0823C125.658 92.9948 125.709 92.9058 125.762 92.8155C126.323 91.8434 126.977 90.7117 127.07 89.3987C127.11 88.8416 127.242 88.2044 127.412 87.4926C127.464 87.2764 127.52 87.0515 127.577 86.8214C127.702 86.3166 127.834 85.7871 127.942 85.2698C128.252 83.7832 128.446 82.0932 127.695 80.699C127.017 79.4399 125.78 79.1483 124.709 79.2185C124.32 79.244 123.932 79.3165 123.565 79.4157C123.635 75.4399 124.77 69.1232 126.08 66.0899C127.597 62.5758 127.073 59.3429 126.622 58.1658C127.054 58.1183 128.003 58.23 128.341 59.0571C128.765 60.0909 128.366 56.3718 125.947 54.7243C126.643 53.0242 127.595 48.951 125.832 46.2591C124.852 44.7644 123.131 43.4814 121.511 42.274L121.511 42.274C119.484 40.7632 117.615 39.3707 117.559 37.8301C117.459 37.3214 117.957 37.2341 118.218 37.254C116.555 35.5252 111.525 33.3175 109.218 32.4298C107.438 28.7582 103.566 27.9912 101.852 28.0667C101.966 27.8955 101.544 27.0551 98.9464 25.0628C96.349 23.0705 88.6296 24.7779 85.0946 25.8806C85.2665 24.5067 85.7912 23.9943 86.0321 23.9099C76.7506 25.6407 73.814 31.1827 73.5059 33.7374C69.7666 34.0239 68.6995 37.5465 68.6333 39.2719C65.0284 40.6936 64.5453 45.8066 64.7543 48.1854C63.3237 50.3422 64.1357 54.9704 64.7206 57.0149C64.2388 57.1838 63.2339 57.6525 62.1433 59.7426ZM151.24 142.466C155.027 142.592 157.206 143.422 159.125 144.371C158.973 144.333 158.821 144.295 158.668 144.259L151.24 142.466ZM121.879 130.85C122.074 130.923 122.229 131.02 122.348 131.141C122.192 131.045 122.035 130.947 121.879 130.85ZM127.05 81.0345C126.603 80.2032 125.825 79.9185 124.998 79.916C125.833 79.9135 126.621 80.1959 127.072 81.0345C127.902 82.5757 127.381 84.673 126.894 86.6343C126.654 87.5994 126.423 88.5316 126.365 89.3483C126.283 90.4904 125.712 91.482 125.138 92.4793C124.468 93.6444 123.793 94.8173 123.888 96.2469C124.007 98.0286 123.807 99.8899 122.805 100.653C122.817 100.639 122.827 100.624 122.838 100.61C123.792 99.8214 123.983 97.9957 123.866 96.2469C123.771 94.8173 124.446 93.6444 125.117 92.4793C125.691 91.482 126.261 90.4904 126.343 89.3483C126.401 88.5316 126.633 87.5994 126.872 86.6343C127.359 84.673 127.88 82.5757 127.05 81.0345ZM64.5298 80.7066C63.6748 80.7955 62.8979 81.1696 62.5449 82.0814C61.9128 83.7137 62.6902 85.7302 63.4171 87.6158L63.4171 87.6159L63.4172 87.616C63.7748 88.5437 64.1203 89.4399 64.2796 90.2429C64.5024 91.3661 65.1919 92.2791 65.8852 93.1974C66.6953 94.2702 67.5108 95.3502 67.5938 96.7806C67.6973 98.5638 68.1274 100.387 69.2165 101.019C69.2037 101.006 69.191 100.993 69.1785 100.98C68.1338 100.316 67.7176 98.5281 67.6161 96.7782C67.5331 95.3478 66.7176 94.2678 65.9075 93.195C65.2142 92.2767 64.5247 91.3637 64.3019 90.2406C64.1426 89.4375 63.7971 88.5414 63.4395 87.6136L63.4394 87.6135L63.4394 87.6134C62.7125 85.7278 61.9352 83.7114 62.5672 82.079C62.9171 81.1751 63.6837 80.7997 64.5298 80.7066Z" fill="white"/>
<path d="M65.7797 80.0334L65.1906 84.4365L72.0021 85.3478L70.0364 78.7627L65.7797 80.0334ZM62.1433 59.7426L66.0817 61.7976V61.7976L62.1433 59.7426ZM64.6645 79.9859L64.4019 75.5514L64.4019 75.5514L64.6645 79.9859ZM61.885 81.826L66.0276 83.4299L61.885 81.826ZM62.2082 86.3919L66.41 84.9502V84.9502L62.2082 86.3919ZM62.7629 87.8859L66.9464 86.3918L66.9278 86.3397L66.9079 86.2881L62.7629 87.8859ZM62.763 87.8862L58.5795 89.3803L58.5981 89.4324L58.618 89.4839L62.763 87.8862ZM63.0098 88.5317L58.8515 90.0945L58.8515 90.0946L63.0098 88.5317ZM63.5856 90.3806L59.2282 91.2451V91.2451L63.5856 90.3806ZM65.3086 93.6084L68.85 90.9265L68.8498 90.9262L65.3086 93.6084ZM65.4941 93.8541L61.9407 96.52L61.9408 96.5201L65.4941 93.8541ZM66.8874 96.8216L71.3223 96.5642V96.5642L66.8874 96.8216ZM67.9163 100.714L71.6121 98.2488L71.6121 98.2488L67.9163 100.714ZM69.4398 101.872L70.6011 97.5843L69.4398 101.872ZM71.3143 101.719L75.558 100.405L74.163 95.8982L69.7479 97.5619L71.3143 101.719ZM72.5531 105.389L68.385 106.925L68.385 106.925L72.5531 105.389ZM76.1261 110.808L80.5682 110.768L80.5523 108.996L79.3212 107.722L76.1261 110.808ZM74.4653 126.695L70.3984 124.908L70.3984 124.908L74.4653 126.695ZM67.0801 130.005L62.9111 131.539L64.3406 135.424L68.3167 134.272L67.0801 130.005ZM66.8786 129.835L66.7652 125.394L66.765 125.394L66.8786 129.835ZM53.1648 134.817L56.7081 137.496L56.7081 137.496L53.1648 134.817ZM53.3139 135.085L53.1122 130.648L53.1091 130.648L53.3139 135.085ZM53.315 135.085L54.7909 139.275L53.1132 130.648L53.315 135.085ZM48.7807 137.439L49.1585 141.865L50.2952 141.768L51.2445 141.135L48.7807 137.439ZM36.3276 141.425L37.4186 145.731L38.3139 145.504L39.0446 144.939L36.3276 141.425ZM21.257 147.725L23.3969 151.618L23.5334 151.543L23.6643 151.459L21.257 147.725ZM-0.716383 190.572L3.42695 192.174L3.72872 191.393L3.72588 190.557L-0.716383 190.572ZM-5.93126 213.997L-10.3517 214.437L-9.95357 218.44H-5.93126V213.997ZM38.0934 213.997L42.4916 214.622L43.2109 209.555H38.0934V213.997ZM38.072 214.148L42.4694 214.778L42.4702 214.773L38.072 214.148ZM38.0453 214.333L33.65 213.688L33.65 213.688L38.0453 214.333ZM39.6833 214.573L35.288 213.928L35.288 213.928L39.6833 214.573ZM39.7153 214.351L35.3176 213.724L35.3176 213.724L39.7153 214.351ZM39.7648 213.997V209.555H35.8891L35.3636 213.395L39.7648 213.997ZM97.8895 213.997L100.894 210.725L99.6194 209.555H97.8895V213.997ZM109.275 224.44L112.276 221.164L112.276 221.164L109.275 224.44ZM110.041 224.517L107.8 220.681L107.8 220.682L110.041 224.517ZM123.958 213.997V209.555H122.22L120.943 210.735L123.958 213.997ZM159.966 213.997L164.407 214.11L164.522 209.555H159.966V213.997ZM159.965 214.018L164.406 214.131L164.406 214.13L159.965 214.018ZM160.772 214.867L160.885 210.426H160.885L160.772 214.867ZM161.62 214.06L166.061 214.174L166.061 214.172L161.62 214.06ZM161.622 213.997V209.555H157.29L157.181 213.885L161.622 213.997ZM196 213.997V218.44H201.685L200.31 212.923L196 213.997ZM187.929 193.428L183.492 193.225L183.423 194.726L184.279 195.96L187.929 193.428ZM161.512 145.066L158.443 148.277L159.167 148.969L160.118 149.284L161.512 145.066ZM147.501 140.286L147.985 135.87L147.985 135.87L147.501 140.286ZM147.371 140.193L143.399 142.183L143.399 142.183L147.371 140.193ZM138.024 136.989L138.585 141.396L138.585 141.396L138.024 136.989ZM137.843 136.877L133.689 138.452V138.452L137.843 136.877ZM132.446 134.54L131.977 130.122L131.977 130.122L132.446 134.54ZM132.206 134.183L136.409 135.62L136.409 135.62L132.206 134.183ZM131.949 133.259L128.93 136.517L128.978 136.562L129.027 136.605L131.949 133.259ZM121.626 130.692L119.266 134.455L120.328 135.121L121.581 135.134L121.626 130.692ZM115.47 125.585L119.718 124.285L119.718 124.285L115.47 125.585ZM113.995 112.543L111.234 109.063L109.414 110.507L109.562 112.826L113.995 112.543ZM120.013 105.389L124.309 106.519L120.013 105.389ZM120.789 101.604L121.847 97.2896L117.222 96.1549L116.411 100.848L120.789 101.604ZM122.689 101.528L124.374 105.639H124.374L122.689 101.528ZM124.594 96.1999L120.162 96.4953L120.162 96.4954L124.594 96.1999ZM125.608 93.0823L129.465 95.2864L129.465 95.2862L125.608 93.0823ZM125.762 92.8155L129.608 95.0373L129.608 95.0371L125.762 92.8155ZM127.07 89.3987L122.639 89.0822V89.0822L127.07 89.3987ZM127.412 87.4926L123.092 86.4583L123.092 86.4584L127.412 87.4926ZM127.577 86.8214L131.888 87.8919V87.8919L127.577 86.8214ZM127.942 85.2698L132.29 86.1784V86.1784L127.942 85.2698ZM127.695 80.699L131.606 78.593L131.606 78.5929L127.695 80.699ZM124.709 79.2185L124.999 83.6513H124.999L124.709 79.2185ZM123.565 79.4157L119.123 79.3369L119.018 85.2463L124.724 83.7041L123.565 79.4157ZM126.08 66.0899L122.001 64.3287V64.3287L126.08 66.0899ZM126.622 58.1658L126.136 53.7501L120.412 54.3794L122.474 59.7566L126.622 58.1658ZM128.341 59.0571L124.23 60.7407L124.23 60.7407L128.341 59.0571ZM125.947 54.7243L121.836 53.0405L120.472 56.3706L123.447 58.3961L125.947 54.7243ZM125.832 46.2591L122.116 48.6935L122.116 48.6935L125.832 46.2591ZM121.511 42.274L118.845 45.8279L118.856 45.8359L121.511 42.274ZM121.511 42.274L124.176 38.7201L124.165 38.7122L121.511 42.274ZM117.559 37.8301L121.998 37.6663L121.985 37.3176L121.918 36.9752L117.559 37.8301ZM118.218 37.254L117.88 41.6835L129.494 42.5683L121.419 34.1744L118.218 37.254ZM109.218 32.4298L105.22 34.367L105.985 35.9458L107.622 36.5758L109.218 32.4298ZM101.852 28.0667L98.1505 25.6112L93.3232 32.889L102.048 32.5047L101.852 28.0667ZM98.9464 25.0628L96.2427 28.5875L96.2427 28.5875L98.9464 25.0628ZM85.0946 25.8806L80.6867 25.3291L79.83 32.1763L86.4175 30.1214L85.0946 25.8806ZM86.0321 23.9099L87.5021 28.1019L85.2177 19.5428L86.0321 23.9099ZM73.5059 33.7374L73.8453 38.1667L77.4797 37.8881L77.9162 34.2693L73.5059 33.7374ZM68.6333 39.2719L70.2631 43.4044L72.9611 42.3403L73.0723 39.4421L68.6333 39.2719ZM64.7543 48.1854L68.4563 50.6409L69.3157 49.3452L69.1796 47.7965L64.7543 48.1854ZM64.7206 57.0149L66.1905 61.2069L70.1436 59.8207L68.9916 55.7932L64.7206 57.0149ZM159.125 144.371L158.035 148.678L161.095 140.39L159.125 144.371ZM151.24 142.466L151.388 138.026L150.198 146.784L151.24 142.466ZM158.668 144.259L157.626 148.577L157.635 148.579L158.668 144.259ZM121.879 130.85L123.434 126.689L119.528 134.619L121.879 130.85ZM122.348 131.141L120.012 134.919L125.507 128.018L122.348 131.141ZM124.998 79.916L124.985 75.4738L124.985 84.3583L124.998 79.916ZM127.05 81.0345L123.139 83.1406V83.1406L127.05 81.0345ZM127.072 81.0345L130.983 78.9284L130.983 78.9284L127.072 81.0345ZM126.894 86.6343L122.583 85.5636V85.5637L126.894 86.6343ZM126.365 89.3483L130.796 89.6648V89.6648L126.365 89.3483ZM125.138 92.4793L128.989 94.6951L128.989 94.6951L125.138 92.4793ZM123.888 96.2469L128.321 95.9515V95.9514L123.888 96.2469ZM122.805 100.653L119.295 97.9304L125.498 104.186L122.805 100.653ZM122.838 100.61L120.009 97.1852L119.588 97.533L119.263 97.9724L122.838 100.61ZM123.866 96.2469L128.299 95.9515V95.9514L123.866 96.2469ZM125.117 92.4793L121.266 90.2634L121.266 90.2635L125.117 92.4793ZM126.343 89.3483L130.774 89.6648V89.6648L126.343 89.3483ZM126.872 86.6343L122.561 85.5636V85.5637L126.872 86.6343ZM62.5449 82.0814L66.6875 83.6854L66.6875 83.6854L62.5449 82.0814ZM64.5298 80.7066L65.0159 85.1222L64.07 76.2881L64.5298 80.7066ZM63.4171 87.6158L67.6314 86.211L67.599 86.1136L67.562 86.0179L63.4171 87.6158ZM63.4171 87.6159L59.2028 89.0207L59.2441 89.1445L59.2926 89.2657L63.4171 87.6159ZM63.4172 87.616L67.5621 86.018L67.5521 85.992L67.5417 85.9661L63.4172 87.616ZM64.2796 90.2429L68.637 89.3785L68.637 89.3785L64.2796 90.2429ZM65.8852 93.1974L69.4304 90.5205L69.4304 90.5205L65.8852 93.1974ZM67.5938 96.7806L63.159 97.0379V97.0379L67.5938 96.7806ZM69.2165 101.019L66.9866 104.861L72.3605 97.8803L69.2165 101.019ZM69.1785 100.98L72.3978 97.9185L72.0213 97.5226L71.5601 97.2297L69.1785 100.98ZM67.6161 96.7782L63.1813 97.0355V97.0355L67.6161 96.7782ZM65.9075 93.195L69.4527 90.5181L69.4527 90.5181L65.9075 93.195ZM64.3019 90.2406L68.6593 89.3761L68.6593 89.3761L64.3019 90.2406ZM63.4395 87.6136L67.5844 86.0156L67.5744 85.9896L67.564 85.9637L63.4395 87.6136ZM63.4394 87.6135L59.2251 89.0183L59.2664 89.1421L59.3149 89.2633L63.4394 87.6135ZM63.4394 87.6134L67.6537 86.2086L67.6213 86.1112L67.5844 86.0155L63.4394 87.6134ZM62.5672 82.079L58.4245 80.4751L62.5672 82.079ZM70.0364 78.7627C69.2925 76.271 68.1451 71.8442 67.3227 67.8152C66.91 65.7936 66.5997 63.9707 66.4531 62.5849C66.3791 61.8849 66.3584 61.3997 66.3658 61.1068C66.378 60.6199 66.4529 61.0862 66.0817 61.7976L58.2049 57.6876C57.5632 58.9174 57.5001 60.243 57.484 60.8835C57.463 61.7181 57.5236 62.6284 57.6178 63.5191C57.8077 65.3148 58.1812 67.4541 58.6176 69.5921C59.4934 73.8823 60.7051 78.5642 61.523 81.3041L70.0364 78.7627ZM64.927 84.4204C64.966 84.4181 65.0545 84.4183 65.1906 84.4365L66.3688 75.6303C65.7788 75.5514 65.1109 75.5094 64.4019 75.5514L64.927 84.4204ZM66.0276 83.4299C65.9753 83.565 65.8811 83.7366 65.7316 83.9077C65.5841 84.0765 65.4233 84.1987 65.2807 84.2807C65.0196 84.4308 64.8651 84.4241 64.927 84.4204L64.4019 75.5514C62.4188 75.6688 59.1385 76.6163 57.7424 80.222L66.0276 83.4299ZM66.41 84.9502C66.2026 84.3456 66.0962 83.9217 66.0598 83.6095C66.0255 83.3157 66.0762 83.3046 66.0276 83.4299L57.7424 80.222C56.5422 83.3218 57.5015 86.3623 58.0063 87.8336L66.41 84.9502ZM66.9079 86.2881C66.7156 85.7892 66.5499 85.358 66.41 84.9502L58.0063 87.8336C58.2094 88.4253 58.4361 89.0122 58.6179 89.4837L66.9079 86.2881ZM66.9465 86.3921L66.9464 86.3918L58.5794 89.38L58.5795 89.3803L66.9465 86.3921ZM67.1681 86.969C67.0822 86.7402 66.9919 86.5062 66.908 86.2885L58.618 89.4839C58.7045 89.7085 58.781 89.907 58.8515 90.0945L67.1681 86.969ZM67.943 89.5162C67.7582 88.5848 67.4344 87.6776 67.1681 86.9689L58.8515 90.0946C59.1002 90.7562 59.1956 91.0809 59.2282 91.2451L67.943 89.5162ZM68.8498 90.9262C68.4899 90.451 68.2801 90.1663 68.1177 89.8904C67.9701 89.6396 67.9456 89.5295 67.943 89.5162L59.2282 91.2451C59.7139 93.6934 61.1816 95.5171 61.7675 96.2907L68.8498 90.9262ZM69.0476 91.1882C68.9798 91.0979 68.9114 91.0076 68.85 90.9265L61.7673 96.2904C61.8318 96.3755 61.8874 96.4489 61.9407 96.52L69.0476 91.1882ZM71.3223 96.5642C71.1731 93.9949 69.7734 92.1556 69.0475 91.1881L61.9408 96.5201C62.1117 96.7479 62.2348 96.9183 62.3315 97.0624C62.4266 97.2041 62.4745 97.2887 62.4971 97.3327C62.5178 97.3731 62.5077 97.361 62.4915 97.3065C62.4739 97.2475 62.4577 97.1678 62.4526 97.0789L71.3223 96.5642ZM71.6121 98.2488C71.6584 98.3183 71.5834 98.2273 71.4943 97.855C71.4109 97.5067 71.3513 97.0648 71.3223 96.5642L62.4526 97.0789C62.5405 98.5933 62.8454 101.116 64.2205 103.178L71.6121 98.2488ZM70.6011 97.5843C71.2361 97.7563 71.5466 98.1506 71.6121 98.2488L64.2205 103.178C64.9968 104.342 66.2996 105.624 68.2784 106.16L70.6011 97.5843ZM69.7479 97.5619C69.7279 97.5694 70.0708 97.4407 70.6011 97.5843L68.2784 106.16C69.9703 106.618 71.5732 106.368 72.8808 105.876L69.7479 97.5619ZM76.7212 103.852C76.3089 102.734 75.9212 101.579 75.558 100.405L67.0706 103.032C67.4745 104.337 67.912 105.642 68.385 106.925L76.7212 103.852ZM79.3212 107.722C78.0303 106.385 77.1756 105.085 76.7212 103.852L68.385 106.925C69.3772 109.617 71.0392 111.936 72.9309 113.894L79.3212 107.722ZM78.5323 128.482C78.9271 127.584 79.1827 126.306 79.3555 125.347C79.5637 124.192 79.7708 122.765 79.9528 121.203C80.3155 118.092 80.5995 114.265 80.5682 110.768L71.684 110.848C71.711 113.871 71.4617 117.311 71.128 120.175C70.9618 121.601 70.7799 122.839 70.6119 123.771C70.4085 124.899 70.3007 125.13 70.3984 124.908L78.5323 128.482ZM68.3167 134.272C70.199 133.726 72.1277 133.102 73.7023 132.434C74.4805 132.105 75.307 131.708 76.0387 131.236C76.5936 130.879 77.8602 130.012 78.5323 128.482L70.3984 124.908C70.6553 124.323 70.9828 123.991 71.0906 123.888C71.2166 123.767 71.2831 123.732 71.2234 123.77C71.0973 123.851 70.7901 124.019 70.2352 124.254C69.1435 124.717 67.6087 125.227 65.8435 125.738L68.3167 134.272ZM66.9921 134.276C65.6698 134.31 64.6441 133.744 64.0163 133.174C63.423 132.635 63.0914 132.029 62.9111 131.539L71.2491 128.471C70.9454 127.645 69.6836 125.32 66.7652 125.394L66.9921 134.276ZM56.7081 137.496C57.2613 136.765 58.6488 135.886 60.9838 135.208C63.1722 134.573 65.4978 134.314 66.9922 134.276L66.765 125.394C64.6614 125.448 61.5603 125.789 58.5065 126.676C55.5994 127.52 51.9291 129.086 49.6215 132.138L56.7081 137.496ZM53.1091 130.648C56.3342 130.499 59.1256 134.299 56.7081 137.496L49.6216 132.137C47.0315 135.563 50.0078 139.685 53.5188 139.523L53.1091 130.648ZM53.1132 130.648L53.1122 130.648L53.5157 139.523L53.5167 139.523L53.1132 130.648ZM51.2445 141.135C52.2114 140.491 53.4393 139.751 54.7909 139.275L51.839 130.895C49.4513 131.736 47.5024 132.952 46.3169 133.742L51.2445 141.135ZM39.0446 144.939C41.0739 143.37 44.4855 142.264 49.1585 141.865L48.4029 133.013C43.0184 133.472 37.6074 134.82 33.6107 137.91L39.0446 144.939ZM23.6643 151.459C27.5871 148.929 32.2751 147.034 37.4186 145.731L35.2367 137.118C29.386 138.6 23.7578 140.827 18.8498 143.992L23.6643 151.459ZM3.72588 190.557C3.64807 167.654 15.337 156.048 23.3969 151.618L19.1172 143.832C8.4933 149.672 -5.24857 164.119 -5.15865 190.587L3.72588 190.557ZM-1.51079 213.558C-1.74112 211.242 -1.13153 207.346 -0.00660849 202.956C1.07622 198.73 2.48042 194.622 3.42695 192.174L-4.85972 188.97C-5.9136 191.695 -7.43139 196.138 -8.61316 200.751C-9.75285 205.199 -10.7505 210.428 -10.3517 214.437L-1.51079 213.558ZM38.0934 209.555H-5.93126V218.44H38.0934V209.555ZM42.4702 214.773L42.4916 214.622L33.6952 213.373L33.6738 213.524L42.4702 214.773ZM42.4406 214.977C42.4502 214.912 42.4598 214.845 42.4694 214.778L33.6746 213.518C33.6664 213.576 33.6582 213.633 33.65 213.688L42.4406 214.977ZM39.3887 210.877C41.3638 211.166 42.7302 213.002 42.4406 214.977L33.65 213.688C33.2278 216.568 35.2199 219.245 38.0996 219.667L39.3887 210.877ZM35.288 213.928C35.5776 211.953 37.4136 210.587 39.3887 210.877L38.0996 219.667C40.9794 220.089 43.6563 218.097 44.0786 215.218L35.288 213.928ZM35.3176 213.724C35.3077 213.793 35.2979 213.861 35.288 213.928L44.0786 215.218C44.0901 215.139 44.1016 215.059 44.1131 214.979L35.3176 213.724ZM35.3636 213.395C35.3482 213.507 35.3329 213.617 35.3176 213.724L44.1131 214.979C44.1308 214.855 44.1485 214.728 44.1661 214.6L35.3636 213.395ZM97.8895 209.555H39.7648V218.44H97.8895V209.555ZM112.276 221.164C109.049 218.208 105.131 214.615 100.894 210.725L94.8853 217.27C99.1251 221.162 103.045 224.757 106.275 227.715L112.276 221.164ZM107.8 220.682C109.181 219.874 111.01 220.004 112.276 221.164L106.275 227.715C107.966 229.264 110.402 229.451 112.282 228.353L107.8 220.682ZM120.943 210.735C116.737 214.621 112.323 218.039 107.8 220.681L112.282 228.353C117.489 225.31 122.417 221.469 126.972 217.26L120.943 210.735ZM159.966 209.555H123.958V218.44H159.966V209.555ZM164.406 214.13L164.407 214.11L155.525 213.885L155.524 213.906L164.406 214.13ZM160.885 210.426C162.881 210.477 164.457 212.136 164.406 214.131L155.525 213.904C155.45 216.814 157.749 219.233 160.658 219.307L160.885 210.426ZM157.179 213.947C157.231 211.951 158.89 210.375 160.885 210.426L160.658 219.307C163.568 219.382 165.987 217.083 166.061 214.174L157.179 213.947ZM157.181 213.885L157.179 213.948L166.061 214.172L166.063 214.11L157.181 213.885ZM196 209.555H161.622V218.44H196V209.555ZM184.279 195.96C185.774 198.114 187.344 201.642 188.732 205.47C190.088 209.211 191.144 212.882 191.69 215.072L200.31 212.923C199.697 210.464 198.555 206.498 197.085 202.442C195.645 198.472 193.76 194.039 191.579 190.895L184.279 195.96ZM160.118 149.284C169.722 152.459 175.698 159.964 179.262 168.7C182.846 177.485 183.773 187.056 183.492 193.225L192.367 193.63C192.695 186.439 191.649 175.543 187.488 165.345C183.309 155.098 175.771 145.102 162.907 140.848L160.118 149.284ZM147.018 144.702C148.628 144.878 151.108 145.301 153.484 145.998C156.032 146.744 157.736 147.602 158.443 148.277L164.582 141.855C162.244 139.62 158.766 138.287 155.982 137.472C153.026 136.605 150.023 136.093 147.985 135.87L147.018 144.702ZM143.399 142.183C144.039 143.459 145.329 144.517 147.018 144.702L147.985 135.87C149.559 136.043 150.754 137.029 151.342 138.202L143.399 142.183ZM138.585 141.396C139.456 141.285 140.826 141.276 142.003 141.553C142.573 141.687 142.956 141.856 143.184 142C143.29 142.068 143.346 142.119 143.37 142.145C143.392 142.168 143.397 142.179 143.399 142.183L151.342 138.202C149.655 134.835 146.408 133.463 144.039 132.905C141.589 132.328 139.115 132.372 137.463 132.583L138.585 141.396ZM133.689 138.452C134.385 140.286 136.303 141.687 138.585 141.396L137.463 132.583C139.587 132.313 141.357 133.617 141.996 135.301L133.689 138.452ZM132.915 138.957C133.111 138.937 133.351 138.928 133.594 138.944C133.84 138.961 134.019 138.998 134.125 139.032C134.232 139.065 134.181 139.069 134.06 138.97C133.914 138.849 133.769 138.662 133.689 138.452L141.996 135.301C140.937 132.508 138.66 131.148 136.805 130.561C135.014 129.994 133.223 129.99 131.977 130.122L132.915 138.957ZM128.003 132.745C127.416 134.46 127.96 135.971 128.512 136.829C129.041 137.65 130.506 139.213 132.915 138.957L131.977 130.122C134.228 129.884 135.547 131.343 135.982 132.02C136.441 132.732 136.944 134.057 136.409 135.62L128.003 132.745ZM129.027 136.605C128.535 136.175 128.077 135.508 127.895 134.646C127.725 133.842 127.858 133.169 128.002 132.745L136.409 135.62C136.65 134.916 136.825 133.93 136.587 132.809C136.338 131.629 135.704 130.64 134.871 129.913L129.027 136.605ZM121.581 135.134C122.796 135.146 124.622 135.331 126.31 135.697C127.147 135.878 127.855 136.084 128.387 136.291C128.985 136.524 129.071 136.648 128.93 136.517L134.968 130C133.918 129.027 132.641 128.413 131.611 128.012C130.514 127.585 129.327 127.26 128.192 127.014C125.936 126.525 123.51 126.269 121.672 126.25L121.581 135.134ZM111.222 126.885C111.619 128.182 112.423 129.147 112.937 129.701C113.525 130.335 114.207 130.922 114.865 131.439C116.184 132.477 117.788 133.528 119.266 134.455L123.987 126.929C122.564 126.036 121.289 125.188 120.356 124.455C119.887 124.086 119.6 123.82 119.449 123.658C119.224 123.416 119.521 123.643 119.718 124.285L111.222 126.885ZM109.562 112.826C109.748 115.752 110.014 118.729 110.292 121.173C110.547 123.421 110.859 125.701 111.222 126.885L119.718 124.285C119.729 124.322 119.705 124.246 119.655 123.991C119.609 123.761 119.556 123.455 119.497 123.072C119.379 122.307 119.25 121.319 119.12 120.172C118.86 117.879 118.606 115.048 118.428 112.26L109.562 112.826ZM115.716 104.259C115.685 104.378 115.452 104.945 114.589 105.946C113.78 106.884 112.642 107.947 111.234 109.063L116.756 116.023C118.443 114.685 120.032 113.239 121.318 111.748C122.549 110.32 123.778 108.537 124.309 106.519L115.716 104.259ZM116.411 100.848C116.153 102.345 115.915 103.505 115.716 104.259L124.309 106.519C124.605 105.393 124.894 103.938 125.166 102.36L116.411 100.848ZM121.004 97.418C121.518 97.2073 121.876 97.2966 121.847 97.2896L119.73 105.918C121.098 106.254 122.735 106.31 124.374 105.639L121.004 97.418ZM120.083 98.2029C120.136 98.0974 120.395 97.6676 121.004 97.418L124.374 105.639C126.271 104.861 127.404 103.428 128.03 102.176L120.083 98.2029ZM120.162 96.4954C120.195 96.9957 120.191 97.4416 120.151 97.7976C120.109 98.178 120.046 98.2777 120.083 98.2029L128.03 102.176C129.138 99.9594 129.127 97.418 129.027 95.9044L120.162 96.4954ZM121.751 90.8783C121.151 91.9286 119.991 93.9274 120.162 96.4953L129.027 95.9044C129.033 95.9932 129.026 96.0743 129.016 96.135C129.007 96.1911 128.998 96.2044 129.014 96.1617C129.031 96.1152 129.068 96.0254 129.145 95.8729C129.223 95.7179 129.324 95.5336 129.465 95.2864L121.751 90.8783ZM121.915 90.5938C121.863 90.6828 121.807 90.7805 121.751 90.8784L129.465 95.2862C129.509 95.209 129.555 95.1289 129.608 95.0373L121.915 90.5938ZM122.639 89.0822C122.638 89.0957 122.628 89.208 122.512 89.4752C122.386 89.7692 122.213 90.0778 121.915 90.5939L129.608 95.0371C130.094 94.1968 131.324 92.2049 131.501 89.7152L122.639 89.0822ZM123.092 86.4584C122.916 87.1947 122.707 88.1351 122.639 89.0822L131.501 89.7152C131.513 89.5482 131.568 89.2141 131.732 88.5268L123.092 86.4584ZM123.265 85.751C123.209 85.9774 123.149 86.2207 123.092 86.4583L131.732 88.5269C131.779 88.332 131.83 88.1255 131.888 87.8919L123.265 85.751ZM123.593 84.3612C123.505 84.7833 123.394 85.2319 123.265 85.751L131.888 87.8919C132.01 87.4014 132.162 86.7908 132.29 86.1784L123.593 84.3612ZM123.784 82.8051C123.72 82.6868 123.772 82.6916 123.774 82.9873C123.777 83.3016 123.724 83.7355 123.593 84.3612L132.29 86.1784C132.608 84.6558 133.182 81.5197 131.606 78.593L123.784 82.8051ZM124.999 83.6513C125.061 83.6472 124.908 83.6731 124.631 83.5565C124.479 83.4929 124.304 83.3917 124.137 83.2425C123.967 83.0913 123.853 82.9327 123.784 82.8051L131.606 78.5929C129.773 75.1885 126.401 74.6559 124.418 74.7857L124.999 83.6513ZM124.724 83.7041C124.865 83.666 124.958 83.654 124.999 83.6513L124.418 74.7857C123.681 74.834 122.999 74.9669 122.406 75.1273L124.724 83.7041ZM122.001 64.3287C121.15 66.3008 120.467 69.0213 119.99 71.588C119.504 74.204 119.164 77.0327 119.123 79.3369L128.006 79.4944C128.036 77.8229 128.299 75.5053 128.725 73.2107C129.16 70.8668 129.7 68.9123 130.158 67.851L122.001 64.3287ZM122.474 59.7566C122.461 59.7213 122.511 59.8505 122.561 60.1499C122.609 60.431 122.648 60.8041 122.647 61.2441C122.645 62.1243 122.488 63.2016 122.001 64.3287L130.158 67.851C132.183 63.1625 131.592 58.7193 130.77 56.5749L122.474 59.7566ZM132.452 57.3734C131.7 55.5375 130.253 54.5664 129.08 54.1253C127.997 53.7181 126.936 53.6622 126.136 53.7501L127.107 62.5814C126.74 62.6218 126.37 62.5981 125.953 62.4416C125.447 62.2513 124.644 61.7496 124.23 60.7407L132.452 57.3734ZM123.447 58.3961C123.538 58.4581 123.814 58.7786 124.013 59.3518C124.113 59.6386 124.075 59.6504 124.054 59.3499C124.05 59.2862 124.027 58.9724 124.088 58.5504C124.115 58.3627 124.195 57.8674 124.473 57.2905C124.716 56.7865 125.537 55.368 127.423 54.9155C129.33 54.458 130.717 55.3707 131.176 55.7303C131.69 56.1326 131.984 56.5504 132.088 56.7049C132.325 57.0538 132.438 57.3391 132.452 57.3734L124.23 60.7407C124.297 60.9042 124.457 61.2816 124.733 61.6888C124.858 61.8725 125.169 62.311 125.699 62.7259C126.175 63.0982 127.576 64.0155 129.495 63.555C131.394 63.0995 132.225 61.6705 132.477 61.1486C132.763 60.5539 132.85 60.0336 132.882 59.8141C132.952 59.3286 132.93 58.9241 132.918 58.7458C132.866 57.9873 132.657 57.1602 132.407 56.4405C131.908 55.0008 130.776 52.638 128.447 51.0525L123.447 58.3961ZM122.116 48.6935C122.251 48.9004 122.452 49.4759 122.379 50.5679C122.31 51.6084 122.023 52.5841 121.836 53.0405L130.058 56.4081C130.567 55.1644 131.104 53.2534 131.244 51.1593C131.38 49.1167 131.175 46.3096 129.547 43.8246L122.116 48.6935ZM118.856 45.8359C120.666 47.1849 121.655 47.9911 122.116 48.6935L129.547 43.8246C128.049 41.5378 125.596 39.778 124.166 38.7122L118.856 45.8359ZM118.845 45.8278L118.845 45.8279L124.176 38.7202L124.176 38.7202L118.845 45.8278ZM113.119 37.9939C113.212 40.5035 114.721 42.2686 115.65 43.2001C116.655 44.2077 117.921 45.1387 118.856 45.8358L124.165 38.7122C123.647 38.3256 123.209 37.9985 122.813 37.6834C122.417 37.3686 122.137 37.1228 121.941 36.9263C121.738 36.7222 121.716 36.6607 121.759 36.7351C121.812 36.8276 121.979 37.1558 121.998 37.6663L113.119 37.9939ZM118.555 32.8246C117.95 32.7784 116.755 32.7957 115.544 33.4899C114.85 33.8873 114.052 34.5737 113.551 35.6579C113.046 36.7502 113.032 37.8334 113.199 38.6849L121.918 36.9752C122.035 37.5724 122.046 38.454 121.615 39.3874C121.187 40.3129 120.511 40.8833 119.962 41.1977C119.041 41.7262 118.225 41.7097 117.88 41.6835L118.555 32.8246ZM107.622 36.5758C108.667 36.9776 110.366 37.6946 111.969 38.4979C112.77 38.8991 113.494 39.2961 114.078 39.6616C114.368 39.8431 114.598 40.0008 114.771 40.1313C114.951 40.2677 115.019 40.3366 115.016 40.3337L121.419 34.1744C119.993 32.691 117.66 31.4122 115.95 30.5551C114.045 29.6005 112.076 28.7697 110.813 28.2838L107.622 36.5758ZM102.048 32.5047C102.243 32.4961 102.936 32.5509 103.666 32.8842C104.319 33.1824 104.864 33.633 105.22 34.367L113.215 30.4926C110.353 24.586 104.304 23.5121 101.657 23.6287L102.048 32.5047ZM96.2427 28.5875C97.4324 29.5002 97.9223 29.9991 98.0575 30.1553C98.1402 30.2508 97.9822 30.0939 97.8054 29.7249C97.7191 29.5448 97.5401 29.1341 97.4632 28.5559C97.3926 28.0248 97.3446 26.8262 98.1505 25.6112L105.554 30.5222C106.389 29.2645 106.352 28.0021 106.27 27.3846C106.182 26.7198 105.968 26.1998 105.818 25.8857C105.512 25.2487 105.108 24.7251 104.774 24.34C104.078 23.5351 103.058 22.6177 101.65 21.538L96.2427 28.5875ZM86.4175 30.1214C87.9947 29.6294 90.5321 28.9991 92.8886 28.7232C94.0707 28.5848 95.0581 28.554 95.7856 28.6194C96.6258 28.695 96.5872 28.8518 96.2427 28.5875L101.65 21.538C100.007 20.2776 98.0294 19.9007 96.5812 19.7705C95.0203 19.6302 93.3699 19.7216 91.8556 19.8989C88.8193 20.2543 85.7295 21.0291 83.7717 21.6399L86.4175 30.1214ZM84.5621 19.7178C83.0687 20.2415 82.1745 21.3681 81.7096 22.1576C81.1597 23.0914 80.8317 24.1699 80.6867 25.3291L89.5025 26.4321C89.5294 26.2175 89.5497 26.3528 89.3654 26.6658C89.2742 26.8207 89.1181 27.0433 88.8662 27.2824C88.6518 27.4858 88.2066 27.8548 87.5021 28.1019L84.5621 19.7178ZM77.9162 34.2693C77.9161 34.2697 77.9169 34.2636 77.919 34.2511C77.9212 34.2387 77.9246 34.2209 77.9298 34.1978C77.9403 34.1512 77.9569 34.0873 77.9825 34.0075C78.034 33.8467 78.1164 33.6373 78.2422 33.3915C78.4934 32.9008 78.9021 32.295 79.5356 31.6653C80.7731 30.4353 82.9918 28.9957 86.8465 28.2769L85.2177 19.5428C74.2888 21.5809 69.6662 28.4737 69.0955 33.2054L77.9162 34.2693ZM73.0723 39.4421C73.0746 39.3814 73.0935 39.1966 73.1625 38.9591C73.2301 38.7266 73.3192 38.5349 73.4069 38.4012C73.4889 38.2762 73.5439 38.2392 73.5551 38.2321C73.5625 38.2274 73.5781 38.2182 73.6113 38.2073C73.6451 38.1962 73.7184 38.1764 73.8453 38.1667L73.1664 29.3081C69.7219 29.572 67.3569 31.4255 65.9775 33.5289C64.7067 35.4665 64.2517 37.6029 64.1943 39.1016L73.0723 39.4421ZM69.1796 47.7965C69.1141 47.0515 69.1671 45.7768 69.5055 44.6889C69.8533 43.5703 70.2322 43.4166 70.2631 43.4044L67.0035 35.1394C63.4295 36.5489 61.7643 39.6625 61.0217 42.0506C60.2695 44.4692 60.1855 46.9404 60.3291 48.5743L69.1796 47.7965ZM68.9916 55.7932C68.772 55.0256 68.4916 53.6842 68.4165 52.3858C68.3794 51.7433 68.3996 51.2236 68.456 50.8494C68.5174 50.4417 68.5859 50.4454 68.4563 50.6409L61.0524 45.7299C59.4797 48.101 59.4422 51.0905 59.5468 52.8987C59.6663 54.9647 60.0843 56.9597 60.4496 58.2366L68.9916 55.7932ZM66.0817 61.7976C66.4333 61.1238 66.6497 60.9445 66.6179 60.9729C66.6003 60.9886 66.5417 61.0365 66.4404 61.0933C66.3353 61.1523 66.2386 61.1901 66.1905 61.2069L63.2506 52.8229C61.6163 53.396 59.7723 54.6838 58.2049 57.6876L66.0817 61.7976ZM161.095 140.39C158.716 139.212 155.918 138.177 151.388 138.026L151.092 146.906C154.137 147.007 155.697 147.631 157.154 148.352L161.095 140.39ZM157.635 148.579C157.769 148.611 157.903 148.644 158.035 148.678L160.214 140.064C160.044 140.021 159.873 139.979 159.701 139.938L157.635 148.579ZM150.198 146.784L157.626 148.577L159.71 139.941L152.283 138.148L150.198 146.784ZM120.324 135.011C120.016 134.896 119.592 134.672 119.188 134.264L125.507 128.018C124.865 127.368 124.132 126.949 123.434 126.689L120.324 135.011ZM124.684 127.362C124.532 127.269 124.381 127.175 124.23 127.081L119.528 134.619C119.69 134.72 119.851 134.82 120.012 134.919L124.684 127.362ZM124.985 84.3583C124.915 84.3581 124.603 84.3478 124.193 84.1442C123.726 83.9129 123.354 83.5392 123.139 83.1406L130.962 78.9284C129.499 76.2123 126.884 75.4794 125.012 75.4738L124.985 84.3583ZM130.983 78.9284C129.506 76.1848 126.858 75.4682 124.985 75.4738L125.012 84.3583C124.948 84.3585 124.637 84.3513 124.226 84.1496C123.756 83.9194 123.378 83.5438 123.161 83.1406L130.983 78.9284ZM131.205 87.705C131.431 86.7969 131.777 85.4415 131.901 84.0786C132.026 82.7051 131.986 80.7897 130.983 78.9284L123.161 83.1406C122.988 82.8205 123.103 82.7243 123.053 83.2751C123.002 83.8365 122.844 84.5104 122.583 85.5636L131.205 87.705ZM130.796 89.6648C130.821 89.3088 130.938 88.78 131.205 87.705L122.583 85.5637C122.37 86.4188 122.025 87.7543 121.934 89.0318L130.796 89.6648ZM128.989 94.6951C129.465 93.867 130.629 91.9945 130.796 89.6648L121.934 89.0317C121.939 88.9511 121.957 88.9801 121.864 89.1931C121.755 89.4429 121.598 89.7254 121.288 90.2635L128.989 94.6951ZM128.321 95.9514C128.327 96.0497 128.293 96.0609 128.365 95.8769C128.405 95.7741 128.47 95.6329 128.577 95.4298C128.688 95.2189 128.814 94.9986 128.989 94.6951L121.288 90.2635C120.727 91.2387 119.257 93.5619 119.456 96.5425L128.321 95.9514ZM125.498 104.186C127.25 102.851 127.87 100.937 128.119 99.7228C128.388 98.4063 128.395 97.0613 128.321 95.9515L119.456 96.5424C119.477 96.8582 119.481 97.1475 119.471 97.3998C119.461 97.6565 119.437 97.8348 119.415 97.9411C119.391 98.0554 119.386 98.0135 119.455 97.8769C119.528 97.7333 119.72 97.4193 120.113 97.1197L125.498 104.186ZM119.263 97.9724C119.274 97.9585 119.284 97.9445 119.295 97.9304L126.316 103.375C126.349 103.333 126.381 103.29 126.413 103.247L119.263 97.9724ZM119.434 96.5424C119.455 96.8522 119.46 97.1368 119.45 97.386C119.44 97.6393 119.417 97.8189 119.395 97.93C119.372 98.0485 119.363 98.0207 119.422 97.9008C119.482 97.7764 119.65 97.4814 120.009 97.1852L125.668 104.034C127.299 102.686 127.878 100.838 128.112 99.647C128.366 98.3574 128.372 97.0433 128.299 95.9515L119.434 96.5424ZM121.266 90.2635C120.705 91.2387 119.235 93.5619 119.434 96.5425L128.299 95.9514C128.305 96.0497 128.272 96.0609 128.343 95.8769C128.383 95.7741 128.448 95.6329 128.555 95.4298C128.666 95.2189 128.792 94.9986 128.967 94.6951L121.266 90.2635ZM121.912 89.0317C121.918 88.9511 121.935 88.9801 121.842 89.1931C121.733 89.4429 121.576 89.7254 121.266 90.2634L128.967 94.6951C129.443 93.867 130.607 91.9945 130.774 89.6648L121.912 89.0317ZM122.561 85.5637C122.349 86.4188 122.003 87.7543 121.912 89.0318L130.774 89.6648C130.799 89.3088 130.917 88.78 131.184 87.705L122.561 85.5637ZM123.139 83.1406C122.967 82.8205 123.081 82.7243 123.031 83.2751C122.98 83.8365 122.823 84.5104 122.561 85.5636L131.184 87.705C131.409 86.7969 131.756 85.4415 131.879 84.0786C132.004 82.7051 131.964 80.7897 130.962 78.9284L123.139 83.1406ZM66.6875 83.6854C66.5164 84.1273 66.1741 84.5546 65.7257 84.8385C65.3375 85.0844 65.0352 85.1202 64.9896 85.125L64.07 76.2881C62.2074 76.482 59.5619 77.4823 58.4022 80.4775L66.6875 83.6854ZM67.562 86.0179C67.1717 85.0053 66.9316 84.3561 66.8113 83.8055C66.6933 83.2651 66.8187 83.3464 66.6875 83.6854L58.4022 80.4775C57.639 82.4488 57.8371 84.3544 58.1315 85.7017C58.4236 87.0388 58.9356 88.3406 59.2721 89.2137L67.562 86.0179ZM67.6315 86.2111L67.6314 86.211L59.2028 89.0205L59.2028 89.0207L67.6315 86.2111ZM67.5417 85.9661L67.5417 85.9661L59.2926 89.2657L59.2926 89.2658L67.5417 85.9661ZM68.637 89.3785C68.3878 88.1223 67.8791 86.8401 67.5621 86.018L59.2722 89.2139C59.6706 90.2473 59.8528 90.7574 59.9222 91.1074L68.637 89.3785ZM69.4304 90.5205C69.0563 90.025 68.8653 89.7642 68.7262 89.5299C68.6076 89.3301 68.6213 89.2992 68.637 89.3785L59.9222 91.1074C60.3767 93.3984 61.7643 95.1118 62.3401 95.8743L69.4304 90.5205ZM72.0286 96.5232C71.8556 93.5411 70.1085 91.4185 69.4304 90.5205L62.3401 95.8743C62.5511 96.1537 62.7037 96.3566 62.8401 96.5521C62.9716 96.7403 63.0529 96.8724 63.1054 96.9695C63.1995 97.1432 63.1647 97.1363 63.159 97.0379L72.0286 96.5232ZM71.4464 97.1765C71.8744 97.4249 72.1037 97.7131 72.1944 97.8469C72.2806 97.974 72.2804 98.0166 72.243 97.9061C72.2083 97.8035 72.162 97.6296 72.1197 97.3761C72.0782 97.127 72.047 96.8392 72.0286 96.5232L63.159 97.0379C63.2234 98.1487 63.3968 99.4831 63.8281 100.756C64.226 101.931 65.0803 103.754 66.9866 104.861L71.4464 97.1765ZM65.9592 104.041C65.9965 104.08 66.0342 104.119 66.0725 104.157L72.3605 97.8803C72.3732 97.893 72.3856 97.9058 72.3978 97.9185L65.9592 104.041ZM63.1813 97.0355C63.2447 98.1281 63.4132 99.4315 63.8255 100.68C64.2064 101.833 65.0104 103.595 66.7969 104.729L71.5601 97.2297C71.9528 97.4791 72.1562 97.751 72.2317 97.867C72.3044 97.9788 72.2996 98.0075 72.2617 97.8929C72.2262 97.7854 72.1808 97.6101 72.1397 97.3599C72.0993 97.1138 72.0689 96.8308 72.0509 96.5208L63.1813 97.0355ZM62.3624 95.8719C62.5734 96.1513 62.726 96.3543 62.8624 96.5497C62.9939 96.7379 63.0752 96.87 63.1277 96.9671C63.2218 97.1408 63.187 97.1339 63.1813 97.0355L72.0509 96.5208C71.8779 93.5387 70.1308 91.4161 69.4527 90.5181L62.3624 95.8719ZM59.9445 91.105C60.399 93.396 61.7866 95.1094 62.3624 95.8719L69.4527 90.5181C69.0786 90.0226 68.8876 89.7618 68.7485 89.5276C68.6299 89.3277 68.6436 89.2968 68.6593 89.3761L59.9445 91.105ZM59.2945 89.2115C59.6929 90.2449 59.8751 90.755 59.9445 91.105L68.6593 89.3761C68.4101 88.1199 67.9014 86.8378 67.5844 86.0156L59.2945 89.2115ZM59.3149 89.2633L59.3149 89.2634L67.564 85.9637L67.564 85.9637L59.3149 89.2633ZM59.2251 89.0181L59.2251 89.0183L67.6538 86.2087L67.6537 86.2086L59.2251 89.0181ZM58.4245 80.4751C57.6613 82.4464 57.8594 84.352 58.1538 85.6994C58.4459 87.0364 58.9579 88.3382 59.2944 89.2113L67.5844 86.0155C67.194 85.0029 66.9539 84.3537 66.8336 83.8031C66.7156 83.2627 66.841 83.344 66.7098 83.683L58.4245 80.4751ZM64.0438 76.2909C62.1822 76.4959 59.5726 77.5099 58.4245 80.4751L66.7098 83.683C66.5406 84.1199 66.2032 84.5446 65.7583 84.8296C65.3715 85.0773 65.0675 85.1165 65.0159 85.1222L64.0438 76.2909Z" fill="white"/>
<path d="M67.9622 80.4823L68.3209 80.6248L68.4603 80.9848L72.9382 92.5465L72.9465 92.5681L72.9537 92.5901C73.3534 93.8072 73.8176 95.7064 73.8979 97.4591C73.9379 98.3326 73.8858 99.2288 73.6447 100.004C73.4014 100.786 72.9327 101.535 72.0866 101.92C71.2859 102.285 70.5088 102.405 69.7891 102.21C69.0653 102.014 68.537 101.537 68.1647 100.979C67.4513 99.9091 67.1853 98.358 67.1064 96.9989C67.0464 95.9648 66.5014 95.1312 65.7482 94.1273C65.6875 94.0464 65.625 93.9639 65.5612 93.8798C64.8865 92.9897 64.0722 91.9156 63.8077 90.5821C63.702 90.0496 63.4969 89.4452 63.2398 88.761C63.1627 88.5558 63.08 88.3412 62.9951 88.1209C62.8074 87.6341 62.6091 87.1194 62.4365 86.6164C61.9432 85.1787 61.5189 83.4704 62.1157 81.9291C62.6668 80.5057 63.9404 80.042 65.0496 79.9764C66.1415 79.9117 67.2598 80.2031 67.9622 80.4823Z" fill="#FCCCA6" stroke="black" stroke-width="1.76889"/>
<path fill-rule="evenodd" clip-rule="evenodd" d="M67.2623 80.9947C66.0116 80.4976 63.3216 79.9905 62.5673 81.939C61.9353 83.5713 62.7126 85.5877 63.4395 87.4733C63.7972 88.4011 64.1427 89.2973 64.302 90.1005C64.5248 91.2236 65.2143 92.1366 65.9076 93.0549C66.7177 94.1277 67.5332 95.2077 67.6162 96.6381C67.7561 99.0483 68.4927 101.531 70.6467 101.048C70.1835 100.187 69.9673 98.9742 69.8979 97.7787C69.8149 96.3483 68.9995 95.2684 68.1894 94.1955C67.496 93.2773 66.8066 92.3642 66.5838 91.2411C66.4244 90.438 66.0789 89.5418 65.7212 88.6139C64.9943 86.7283 64.217 84.7119 64.849 83.0796C65.2967 81.9234 66.4259 81.6318 67.5315 81.6897L67.2623 80.9947Z" fill="#FBCBB9"/>
<path d="M67.3707 80.6683L67.5141 80.7253L67.5699 80.8693L72.0478 92.4311L72.0512 92.4397L72.054 92.4485C72.4444 93.6374 72.8949 95.487 72.9723 97.1763C73.0109 98.0198 72.9578 98.8469 72.7425 99.5388C72.5263 100.234 72.1334 100.829 71.4711 101.13C70.7461 101.461 70.0988 101.544 69.5323 101.391C68.9643 101.237 68.5324 100.86 68.2107 100.377C67.5797 99.4311 67.3185 98.0011 67.2407 96.661C67.1705 95.4509 66.5278 94.5021 65.7772 93.5017C65.7175 93.4221 65.657 93.3421 65.596 93.2615C64.9112 92.3559 64.1721 91.3787 63.9327 90.1717C63.818 89.5934 63.5993 88.9543 63.3411 88.2672C63.2606 88.0532 63.176 87.8338 63.0901 87.6109C62.9043 87.1287 62.7123 86.6306 62.5429 86.137C62.0509 84.703 61.6934 83.1608 62.215 81.8136C62.6618 80.6597 63.6879 80.258 64.6855 80.199C65.6761 80.1403 66.7145 80.4075 67.3707 80.6683Z" stroke="black" stroke-width="0.707554"/>
<path d="M121.516 80.1186L121.178 80.3047L121.085 80.6791L118.077 92.7076L118.072 92.73L118.067 92.7527C117.822 94.0101 117.597 95.9522 117.735 97.7013C117.804 98.573 117.967 99.4558 118.303 100.195C118.641 100.941 119.199 101.626 120.087 101.903C120.927 102.166 121.712 102.188 122.402 101.905C123.096 101.62 123.561 101.082 123.861 100.482C124.436 99.3315 124.508 97.7594 124.417 96.401C124.348 95.3675 124.785 94.4726 125.408 93.383C125.458 93.2952 125.51 93.2056 125.563 93.1142C126.122 92.1472 126.796 90.9802 126.893 89.6242C126.932 89.0827 127.06 88.4575 127.23 87.7467C127.282 87.5334 127.337 87.3102 127.394 87.0811C127.52 86.5747 127.652 86.0394 127.761 85.5188C128.072 84.031 128.281 82.2833 127.497 80.8281C126.774 79.4841 125.452 79.1822 124.344 79.2549C123.252 79.3263 122.179 79.7544 121.516 80.1186Z" fill="#FCCCA6" stroke="black" stroke-width="1.76889"/>
<path fill-rule="evenodd" clip-rule="evenodd" d="M122.274 80.5396C123.454 79.891 126.06 79.0537 127.05 80.8934C127.88 82.4346 127.359 84.5319 126.872 86.4932C126.633 87.4583 126.401 88.3905 126.343 89.2072C126.261 90.3493 125.69 91.3409 125.117 92.3382C124.446 93.5033 123.771 94.6762 123.866 96.1058C124.027 98.5147 123.604 101.069 121.407 100.858C121.76 99.9466 121.824 98.7158 121.744 97.5209C121.649 96.0912 122.324 94.9183 122.994 93.7532C123.568 92.7559 124.139 91.7643 124.221 90.6222C124.279 89.8055 124.51 88.8733 124.75 87.9082C125.237 85.947 125.758 83.8496 124.928 82.3084C124.34 81.2167 123.183 81.0677 122.094 81.2626L122.274 80.5396Z" fill="#FBCBB9"/>
<path d="M122.126 80.2296L121.99 80.304L121.953 80.4538L118.946 92.4823L118.944 92.4912L118.942 92.5003C118.702 93.7285 118.485 95.6197 118.618 97.3055C118.684 98.1473 118.84 98.9614 119.139 99.6213C119.44 100.284 119.904 100.826 120.599 101.043C121.359 101.28 122.012 101.282 122.555 101.06C123.099 100.837 123.481 100.409 123.74 99.8903C124.249 98.873 124.33 97.4217 124.241 96.0823C124.16 94.8729 124.68 93.8516 125.301 92.7657C125.35 92.6793 125.4 92.5924 125.451 92.5048C126.018 91.5212 126.63 90.4597 126.717 89.2324C126.759 88.6443 126.897 87.983 127.068 87.2691C127.121 87.0468 127.178 86.8186 127.235 86.5868C127.36 86.0852 127.489 85.5671 127.595 85.0563C127.905 83.5723 128.068 81.9976 127.384 80.7257C126.797 79.6362 125.729 79.3651 124.732 79.4304C123.741 79.4952 122.744 79.8893 122.126 80.2296Z" stroke="black" stroke-width="0.707554"/>
<path d="M74.4653 126.554C75.2641 124.737 77.0221 110.876 75.5749 104.798L113.781 103.543C113.494 109.724 114.78 123.191 115.47 125.445C116.16 127.699 124.126 131.936 127.076 133.935V163.055L88.5898 169.826L56.6646 132.44C59.07 131.894 73.4669 128.826 74.4653 126.554Z" fill="#FFD6C5" stroke="black" stroke-width="1.35074"/>
<g filter="url(#filter0_iii_450_371)">
<path d="M71.8792 102.064C70.7472 101.074 68.1056 80.5429 66.9264 70.4013C65.5941 59.6111 84.4383 41.3916 85.8534 41.2147C86.7607 41.1013 101.891 43.9339 113.782 46.2167C118.471 47.1167 121.924 51.1123 122.154 55.8806L123 73.4084C122.823 77.8306 122.328 87.8425 121.762 92.5124C121.706 92.9722 121.645 93.3992 121.581 93.7954C121.047 97.0641 118.69 100.24 117.086 103.137L114.779 107.301C113.796 109.078 112.312 110.526 110.513 111.466L101.71 116.068C99.1558 117.403 96.1618 117.615 93.4455 116.653L83.385 113.09C81.6425 112.472 80.0991 111.4 78.9023 109.992C76.2645 106.887 72.7782 102.851 71.8792 102.064Z" fill="#FFD6C5"/>
</g>
<path d="M77.1857 101.533C78.5419 103.774 81.5018 108.432 82.4924 109.14C83.7306 110.024 94.5208 113.739 95.9359 113.562C97.351 113.385 107.08 110.555 108.318 109.14C109.512 107.775 114.816 102.465 115.354 101.61C115.392 101.526 115.406 101.497 115.394 101.533C115.387 101.552 115.374 101.578 115.354 101.61C114.835 102.769 109.823 114.53 106.195 115.684C102.304 116.923 89.7448 116.392 86.7377 114.8C83.7306 113.208 76.832 109.847 76.6551 107.724C76.5136 106.026 76.9499 102.89 77.1857 101.533Z" fill="#FBCBB9"/>
<path d="M71.1469 95.5197C70.7382 94.286 69.307 86.7562 68.5786 82.802C68.5366 82.5741 68.3694 82.3894 68.1466 82.3254C67.7314 82.206 67.3275 82.5417 67.3781 82.9707C67.9142 87.5146 69.5343 97.0596 72.5531 105.249C75.5846 113.472 88.0158 119.023 94.9664 121.143C95.8312 121.407 96.7475 121.474 97.6227 121.247C104.597 119.44 118.533 110.874 120.013 105.249C121.224 100.642 122.825 87.2059 123.177 81.0148C123.174 80.7438 121.602 80.371 121.595 80.1304C121.595 80.9849 120.938 90.1509 120.418 94.8647C120.383 95.1812 120.287 95.4876 120.127 95.7628C118.857 97.9468 117.196 99.7691 115.967 100.712C115.533 101.045 115.153 101.454 114.909 101.944C113.327 105.127 110.551 108.476 109.123 110.006C109 110.137 108.867 110.251 108.716 110.347C106.794 111.578 100.327 115.154 96.2828 115.154C92.0642 115.154 83.0996 110.732 81.5176 110.201C80.3603 109.813 78.5266 104.957 77.5494 101.965C77.383 101.456 77.0644 101.012 76.6355 100.691C74.6381 99.1953 71.5236 96.6569 71.1469 95.5197Z" fill="black"/>
<path d="M75.2397 67.5713C69.2525 70.2834 67.9834 79.7402 68.6948 82.4299C67.7386 82.6175 66.9121 82.0065 66.5721 82.0732C66.1471 82.1565 60.7801 62.2151 62.1434 59.6024C63.234 57.5123 64.2389 57.0436 64.7206 56.8747C64.1358 54.8302 63.3238 50.202 64.7544 48.0452C64.5453 45.6664 65.0284 40.5534 68.6333 39.1317C68.6995 37.4062 69.7667 33.8837 73.5059 33.5972C73.814 31.0425 76.7506 25.5005 86.0322 23.7697C85.7913 23.8541 85.2666 24.3665 85.0947 25.7404C88.6297 24.6377 96.3491 22.9303 98.9464 24.9226C101.544 26.9149 101.966 27.7553 101.853 27.9265C103.566 27.851 107.439 28.618 109.218 32.2896C111.525 33.1773 116.555 35.385 118.218 37.1138C117.957 37.0939 117.459 37.1812 117.559 37.6899C117.661 40.4619 123.627 42.754 125.832 46.1189C127.595 48.8108 126.643 52.884 125.947 54.5841C128.366 56.2316 128.765 59.9506 128.341 58.9169C128.003 58.0898 127.054 57.9781 126.622 58.0256C127.073 59.2027 127.597 62.4356 126.08 65.9497C124.562 69.4637 123.28 77.3842 123.615 80.9669L122.157 80.1153C121.897 78.7889 122.514 75.8963 122.159 74.0895C121.716 71.831 120.252 70.5546 119.51 69.5833C118.768 68.612 119.278 68.4003 118.308 63.4532C116.985 48.0452 83.7303 51.2976 77.0085 55.366C71.4783 58.7133 75.8178 64.3309 75.2397 67.5713Z" fill="black" stroke="black" stroke-width="0.24885" stroke-linecap="round" stroke-linejoin="round"/>
<path d="M94.5208 105.602C92.1257 105.336 89.6858 103.656 88.8604 103.126C90.2755 104.541 93.1057 106.133 93.9901 106.31C94.8746 106.486 94.3188 109.005 96.4666 109.14C99.2968 109.317 99.6506 108.786 99.6506 107.194C99.6506 106.345 103.365 103.656 105.134 102.418C103.365 103.146 100.872 105.252 99.2968 105.602C97.7048 105.956 97.7048 105.956 94.5208 105.602Z" fill="black" stroke="black" stroke-width="0.353777" stroke-linejoin="round"/>
<path d="M94.4085 90.4251C93.273 89.1545 94.8503 79.2799 95.7837 75.5628C91.5375 75.2204 91.7438 86.1869 91.5697 87.2487C91.3957 88.3105 89.982 88.8449 88.9254 90.6167C87.8688 92.3884 89.2872 93.6228 90.1721 93.7973C91.0571 93.9718 91.0523 92.203 92.8207 92.0213C94.5891 91.8397 94.416 93.2553 95.3024 93.9605C96.1887 94.6656 96.5415 94.3109 97.2486 94.1321C97.9557 93.9533 97.7764 93.0694 99.1892 92.1811C100.602 91.2929 102.908 93.5863 103.437 93.2311C105.202 91.6344 103.782 89.8693 103.427 89.3396C103.072 88.8098 101.745 87.67 100.754 82.0943C99.497 75.0222 97.1988 75.559 96.6682 75.5604C96.1375 75.5618 99.182 89.5278 98.6538 90.4137C98.1255 91.2995 95.8278 92.0133 94.4085 90.4251Z" fill="#FBCBB9"/>
<path d="M90.5794 88.667C89.2845 89.4959 87.2973 91.6475 89.7083 93.6222" stroke="black" stroke-width="0.442411" stroke-linecap="round"/>
<path d="M102.431 88.4575C103.73 89.2795 105.729 91.4204 103.328 93.408" stroke="black" stroke-width="0.442411" stroke-linecap="round"/>
<path d="M91.4744 92.5553C92.2986 92.0814 93.8773 91.4875 95.015 93.6071C95.5484 94.6007 97.2754 94.5691 97.6688 93.7769C98.1967 92.7142 99.4311 91.2958 101.911 92.5273" stroke="black" stroke-width="0.442411" stroke-linecap="round"/>
<path d="M92.5752 76.5924C93.8724 76.0028 97.1743 75.1773 100.005 76.5924" stroke="black" stroke-width="1.41511"/>
<path d="M75.9751 75.5578C79.0498 74.4298 84.8729 73.2918 91.2074 74.9518C91.8226 75.113 92.2612 75.6356 92.31 76.262C92.5106 78.833 92.447 82.9121 91.2757 86.4607C91.1262 86.9137 90.762 87.2556 90.3023 87.3749C87.8644 88.008 83.3334 88.6831 78.4782 87.9435C78.0404 87.8768 77.6772 87.635 77.4812 87.289C76.3891 85.3617 74.9339 81.5508 75.0722 76.842C75.0895 76.2549 75.4471 75.7515 75.9751 75.5578Z" fill="#262626" stroke="black" stroke-width="1.41511"/>
<path d="M116.357 74.9561C113.212 74.0413 107.325 73.3046 101.119 75.3945C100.516 75.5974 100.115 76.1488 100.109 76.7771C100.085 79.3557 100.427 83.421 101.839 86.881C102.019 87.3228 102.406 87.6389 102.873 87.7265C105.348 88.1911 109.915 88.5544 114.708 87.4841C115.14 87.3876 115.486 87.1215 115.658 86.7629C116.615 84.7653 117.806 80.8638 117.346 76.1755C117.288 75.5909 116.897 75.1132 116.357 74.9561Z" fill="#262626" stroke="black" stroke-width="1.41511"/>
<path d="M79.1314 71.8948C76.8511 72.5284 74.604 74.5172 73.6479 75.6095C80.9746 71.8024 88.4945 74.8881 90.6323 75.357C92.7701 75.8258 93.4035 74.7051 92.6604 73.7307C88.1287 69.3213 80.4238 70.6214 77.1857 71.7179L79.1314 71.8948Z" fill="black" stroke="black" stroke-width="0.24885" stroke-linecap="round" stroke-linejoin="round"/>
<path d="M113.507 71.7283C115.787 72.3619 118.034 74.3507 118.99 75.443C111.664 71.6359 104.144 74.7216 102.006 75.1905C99.8681 75.6593 99.2347 74.5386 99.9778 73.5642C104.51 69.1548 112.214 70.4549 115.453 71.5514L113.507 71.7283Z" fill="black" stroke="black" stroke-width="0.24885" stroke-linecap="round" stroke-linejoin="round"/>
<path d="M75.24 80.6611H70.6409L67.6338 81.7225" stroke="black" stroke-width="2.12266" stroke-linejoin="bevel"/>
<path d="M116.809 80.1304H120.401L123.177 81.5455" stroke="black" stroke-width="2.12266" stroke-linejoin="bevel"/>
<path d="M96.2329 99.5687C93.2996 99.948 87.6243 98.5149 85.1533 97.751C85.3127 98.1988 86.0939 99.5213 87.9432 101.228C89.7924 102.935 96.3658 103.994 99.4213 104.31L107.552 97.751C105.001 98.1988 99.1663 99.1893 96.2329 99.5687Z" fill="white"/>
<path d="M83.5537 97.1113C85.6937 97.8987 90.8564 99.3002 94.3874 98.6073C94.8154 98.8173 95.8319 99.2057 96.4739 99.0798C97.1159 98.9538 97.7044 98.4499 97.9184 98.2137C100.456 98.3495 105.469 98.3681 107.788 97.5627C108.107 97.4102 108.402 97.2589 108.672 97.1113C108.46 97.2847 108.158 97.4342 107.788 97.5627C102.895 99.905 92.4744 102.552 83.5537 97.1113Z" fill="#E57478" stroke="#8D082C" stroke-width="0.707554"/>
<path d="M97.3505 102.595C91.9571 103.343 86.227 99.5523 84.0332 97.345C86.6015 100.383 92.6621 104.957 96.643 104.894C101.218 104.823 106.024 100.176 108.191 97.1113C106.827 98.7733 102.744 101.847 97.3505 102.595Z" fill="#E57478" stroke="#8D082C" stroke-width="0.707554"/>
<path d="M81.4308 96.7575C79.3082 97.182 80.1926 100.59 80.9001 102.241C81.068 102.666 82.3852 102.654 83.0228 102.595C82.669 101.887 82.669 100.472 83.9073 99.5877C84.8978 98.8801 92.6927 98.4674 96.4663 98.3495C96.8909 98.491 97.7046 98.4084 98.0583 98.3495C100.004 97.8188 109.202 99.4108 110.441 100.295C111.431 101.003 111.207 102.123 110.971 102.595C111.443 102.595 112.492 102.524 112.917 102.241C113.448 101.887 114.509 96.7575 112.386 96.7575C108.495 96.7575 103.542 95.3423 100.712 94.281C98.4475 93.4319 97.2918 94.3989 96.997 94.9886C96.4663 94.281 94.3437 93.5735 92.221 94.6348C90.0984 95.6961 84.0841 96.2268 81.4308 96.7575Z" fill="black" stroke="black" stroke-width="0.353777" stroke-linejoin="bevel"/>
<path d="M74.9171 53.209C74.042 46.7607 74.3368 32.9245 82.5169 29.166C79.7534 31.8375 74.3644 40.3861 74.9171 53.209Z" fill="#C4C4C4" fill-opacity="0.31"/>
<path d="M113.606 53.2093C113.975 51.5051 115.541 48.069 118.857 47.9585C117.568 48.4191 114.712 50.1141 113.606 53.2093Z" fill="#3D3D3D"/>
<path d="M113.444 139.048C110.395 141.48 97.1707 145.304 89.2754 145.175C91.4944 148.745 108.813 151.639 109.633 151.832C110.453 152.025 124.153 141.605 125.794 136.781C127.106 132.922 121.162 131.523 119.57 130.027C118.493 132.198 116.493 136.617 113.444 139.048Z" fill="#F1AE99" fill-opacity="0.28"/>
<path d="M84.9559 57.9224C81.9901 56.4166 84.3473 52.7185 85.8966 51.0576H96.0777C94.842 51.5928 91.9831 53.0063 90.4338 54.3793C88.4972 56.0955 90.0465 57.0366 91.3192 59.4725C92.5918 61.9084 90.5445 63.7907 89.3825 64.3997C88.2206 65.0087 85.1773 64.9533 84.1813 63.3478C83.1853 61.7424 84.5686 60.9119 85.288 60.9119C85.8634 60.9119 85.9341 61.5063 85.8418 61.8016C85.7865 61.5248 85.644 61.0671 85.157 61.3329C83.9677 62.3063 85.8966 64.1783 87.9439 63.2925C89.9912 62.4067 88.6632 59.8047 84.9559 57.9224Z" fill="black" stroke="black" stroke-width="0.0964813"/>
<path d="M-0.716383 190.432C-0.815713 161.195 17.039 148.313 25.9788 145.526L42.7408 142.049L60.2892 131.951C60.0271 132.682 60.579 134.873 64.8833 137.786C69.1876 140.7 77.1567 142.739 80.6884 145.526C87.2774 146.652 106.983 146.464 117.785 145.526C123.24 142.049 124.978 139.194 125.144 136.048C125.273 133.592 123.993 132.329 123.29 131.975L123.24 131.951C123.257 131.958 123.273 131.966 123.29 131.975L138.264 139.194L158.668 144.119C183.6 150.079 188.564 179.381 187.929 193.287C191.605 198.585 194.841 209.208 196 213.857H38.6434H-5.93126C-6.56035 207.533 -2.7168 195.605 -0.716383 190.432Z" fill="#128AC6" stroke="#342E52" stroke-width="2.06939" stroke-linejoin="round"/>
<path d="M27.7994 145.195C18.8596 147.982 0.331998 160.467 0.331998 190.68C-1.66842 195.854 -5.51201 206.498 -4.88292 212.823H4.92603C4.29694 206.498 7.96083 195.274 9.96125 190.101C9.86192 160.864 27.7166 147.982 36.6564 145.195L53.4184 141.718L64.2218 135.501C62.1824 133.578 61.9104 132.176 62.1099 131.62L44.5614 141.718L27.7994 145.195Z" fill="#1168A8"/>
<path d="M47.8874 191.301C39.7754 188.155 35.6228 180.168 34.5605 176.567C32.9877 177.56 34.5605 187.079 37.0024 191.301C38.9559 194.678 39.1959 198.089 39.0718 199.372V212.864H160.007C160.117 210.422 160.355 205.009 160.421 202.89C160.504 200.241 161.29 199.123 161.911 196.35C162.904 189.828 161.911 182.347 161.29 179.423C160.228 188.224 157.251 206.209 153.84 207.732C150.43 209.255 113.211 210.905 95.0281 211.54L52.8125 209.139C52.2331 203.552 50.4369 192.162 47.8874 191.301Z" fill="#1168A8"/>
<path d="M70.8563 156.525L56.2427 174.483C56.0264 174.749 56.0337 175.122 56.2804 175.359C62.8429 181.684 93.9002 210.214 109.275 224.299C109.488 224.494 109.792 224.522 110.041 224.376C130.814 212.239 148.047 185.752 154.26 173.665C154.355 173.48 154.356 173.274 154.257 173.092C151.438 167.887 139.287 158.862 133.421 154.907C133.393 154.888 133.368 154.873 133.337 154.86C130.283 153.478 117.991 154.097 110.741 154.879C104.967 155.503 82.2734 156.069 71.3501 156.281C71.1553 156.285 70.9793 156.374 70.8563 156.525Z" fill="#DC3347" stroke="#2B3157" stroke-width="2.23494"/>
<path d="M117.418 155.417C114.571 155.682 96.9314 156.604 94.0757 156.824C98.1179 158.852 109.141 165.35 117.418 172.469C125.265 179.217 119.598 207.304 109.886 222.59C128.096 214.246 146.142 186.279 152.888 173.338C149.775 168.007 138.237 159.501 132.856 155.914C130.869 155.003 120.978 155.086 117.418 155.417Z" fill="#C9293C"/>
<path d="M84.3496 163.364C119.478 154.82 139.592 170.806 145.598 179.476C145.684 179.601 145.689 179.756 145.62 179.89L141.892 187.142C141.701 187.513 141.107 187.396 141.028 186.985C137.657 169.312 98.4893 172.099 90.0241 170.567C81.3326 168.994 80.1694 164.381 84.3496 163.364Z" fill="#EAC666" stroke="#342E52" stroke-width="1.48996"/>
<path d="M149.425 172.99C146.815 168.791 141.68 163.75 138.858 161.228C138.594 160.992 138.261 161.173 138.386 161.505C139.479 164.415 144.699 171.252 147.723 174.979C147.898 175.194 148.229 175.179 148.384 174.95L149.414 173.434C149.505 173.3 149.51 173.127 149.425 172.99Z" fill="#EAC666" stroke="#342E52" stroke-width="1.48996"/>
<path d="M132.18 157.57C131.22 156.444 118.398 157.101 112.107 157.57C113.845 157.57 131.766 161.336 132.18 161.253C132.594 161.171 133.38 158.977 132.18 157.57Z" fill="#EAC666" stroke="#342E52" stroke-width="1.48996" stroke-linejoin="round"/>
<path d="M120.969 130.558C126.485 130.696 116.904 140.349 115.429 145.59C115.399 145.697 115.486 145.795 115.597 145.789L133.23 144.743C133.239 144.743 133.248 144.742 133.257 144.74C154.214 140.008 156.872 143.24 161.739 145.56C161.889 145.632 162.021 145.472 161.913 145.346C159.165 142.155 151.321 140.563 147.501 140.145C147.444 140.139 147.396 140.103 147.371 140.052C145.712 136.741 140.547 136.527 138.024 136.848C137.945 136.858 137.871 136.81 137.843 136.736C136.989 134.485 134.155 134.218 132.446 134.399C132.287 134.416 132.154 134.193 132.206 134.041C132.302 133.761 132.29 133.416 131.949 133.118C129.992 131.304 123.823 130.456 120.969 130.558Z" fill="#DC3347" stroke="#342E52" stroke-width="1.15886" stroke-linejoin="round"/>
<path d="M10.0156 159.792C22.7291 134.145 70.7131 135.788 88.092 145.523C88.2346 145.602 88.1681 145.809 88.0049 145.819C46.1285 148.37 16.3126 150.376 10.0156 159.792Z" fill="#DC3347" stroke="#342E52" stroke-width="0.662205"/>
<path d="M35.625 141.87C46.0938 132.428 77.256 138.938 87.5074 145.2C87.6386 145.28 87.5889 145.469 87.4364 145.489C70.0016 147.726 43.9327 141.801 35.7372 142.154C35.5825 142.161 35.51 141.974 35.625 141.87Z" fill="#DC3347" stroke="#342E52" stroke-width="0.662205"/>
<path d="M57.8781 134.245C53.7934 133.977 50.0969 136.397 48.3495 137.589C48.1909 137.698 48.3352 138.251 48.5268 138.263C57.3423 138.817 78.4881 144.922 87.2553 145.121C87.4079 145.125 87.4709 144.942 87.3541 144.844C79.8605 138.556 63.0841 134.585 57.8781 134.245Z" fill="#DC3347" stroke="#342E52" stroke-width="0.662205"/>
<path d="M71.8123 134.978C78.5752 140.868 88.7091 143.339 89.2545 144.998C89.2848 145.09 89.1938 145.16 89.0986 145.141C73.658 142.162 58.3323 134.713 53.3139 134.945C53.171 134.952 53.0785 134.791 53.1648 134.677C56.0255 130.894 63.2805 129.787 66.8786 129.695C67.0024 129.692 67.0896 129.83 67.1001 129.953C67.1612 130.67 68.5589 131.955 71.8123 134.978Z" fill="#DC3347" stroke="#342E52" stroke-width="0.662205"/>
<path d="M62.5933 175.648C63.1696 176.741 66.1699 179.135 67.516 180.156C67.7823 180.358 68.1328 180.165 68.1272 179.831C67.9828 171.27 72.2485 163.313 77.0153 160.032C77.3852 159.778 77.2056 159.06 76.7567 159.06H73.3887C73.3202 159.06 73.2573 159.074 73.1985 159.109C70.6048 160.658 65.122 170.443 62.6021 175.339C62.5512 175.438 62.5414 175.549 62.5933 175.648Z" fill="#EAC666" stroke="#342E52" stroke-width="1.48996"/>
<path d="M116.342 195.316C102.195 195.192 89.3003 192.585 83.6019 191.038C83.2263 190.936 82.9324 191.366 83.1602 191.682C97.7792 211.932 122.273 207.223 125.655 202.559C128.055 199.248 126.938 195.316 116.342 195.316Z" fill="#EAC666" stroke="#342E52" stroke-width="1.48996"/>
<path d="M33.6494 177.146C33.6908 180.292 34.5351 187.634 37.5813 191.839C40.6274 196.044 39.7058 208.574 38.8643 214.313M162.366 179.506C163 183.838 163.889 193.544 162.366 197.716C160.843 201.888 160.903 209.581 160.793 213.899" stroke="#2B3157" stroke-width="1.65551" stroke-linecap="round" stroke-linejoin="round"/>
<path d="M176.479 171.517C174.591 158.869 157.647 148.423 149.411 144.781C180.899 143.49 187.309 176.608 186.577 193.329C191.378 200.646 193.958 209.235 194.648 212.615L185.791 213.443C185.526 209.404 181.045 198.985 178.838 194.281C178.838 191.963 178.366 184.165 176.479 171.517Z" fill="#1168A8"/>
<path d="M84.8855 131.861C85.6187 130.472 86.2845 121.73 86.1397 117.533C84.4417 116.684 78.0996 112.597 76.8293 111.503C76.6685 115.974 76.0767 125.339 74.9962 127.037C73.9156 128.735 69.6575 129.964 67.6636 130.366C67.9723 131.33 74.2243 136.782 76.7328 137.988C79.2735 136.621 84.1522 133.25 84.8855 131.861Z" fill="#F1AE99" fill-opacity="0.28"/>
</g>
<defs>
<filter id="filter0_iii_450_371" x="66.859" y="39.1379" width="56.1411" height="78.1096" filterUnits="userSpaceOnUse" color-interpolation-filters="sRGB">
<feFlood flood-opacity="0" result="BackgroundImageFix"/>
<feBlend mode="normal" in="SourceGraphic" in2="BackgroundImageFix" result="shape"/>
<feColorMatrix in="SourceAlpha" type="matrix" values="0 0 0 0 0 0 0 0 0 0 0 0 0 0 0 0 0 0 127 0" result="hardAlpha"/>
<feOffset dy="-2.07351"/>
<feGaussianBlur stdDeviation="3.32294"/>
<feComposite in2="hardAlpha" operator="arithmetic" k2="-1" k3="1"/>
<feColorMatrix type="matrix" values="0 0 0 0 0.525 0 0 0 0 0 0 0 0 0 0.0629999 0 0 0 0.11 0"/>
<feBlend mode="normal" in2="shape" result="effect1_innerShadow_450_371"/>
<feColorMatrix in="SourceAlpha" type="matrix" values="0 0 0 0 0 0 0 0 0 0 0 0 0 0 0 0 0 0 127 0" result="hardAlpha"/>
<feOffset dy="-1.03676"/>
<feGaussianBlur stdDeviation="1.03676"/>
<feComposite in2="hardAlpha" operator="arithmetic" k2="-1" k3="1"/>
<feColorMatrix type="matrix" values="0 0 0 0 0.956863 0 0 0 0 0.72549 0 0 0 0 0.639216 0 0 0 0.14 0"/>
<feBlend mode="normal" in2="effect1_innerShadow_450_371" result="effect2_innerShadow_450_371"/>
<feColorMatrix in="SourceAlpha" type="matrix" values="0 0 0 0 0 0 0 0 0 0 0 0 0 0 0 0 0 0 127 0" result="hardAlpha"/>
<feOffset/>
<feGaussianBlur stdDeviation="2.4922"/>
<feComposite in2="hardAlpha" operator="arithmetic" k2="-1" k3="1"/>
<feColorMatrix type="matrix" values="0 0 0 0 0.845833 0 0 0 0 0.198489 0 0 0 0 0.0563889 0 0 0 0.55 0"/>
<feBlend mode="normal" in2="effect2_innerShadow_450_371" result="effect3_innerShadow_450_371"/>
</filter>
</defs>
</svg>
