<svg xmlns="http://www.w3.org/2000/svg" width="80" height="80" fill="none" viewBox="0 0 80 80"><path fill="#fff" d="M40 6.66675C58.41 6.66675 73.3333 21.5901 73.3333 40.0001C73.3333 58.4101 58.41 73.3334 40 73.3334C21.59 73.3334 6.66663 58.4101 6.66663 40.0001C6.66663 21.5901 21.59 6.66675 40 6.66675ZM40 11.6667C32.4855 11.6667 25.2788 14.6519 19.9653 19.9654C14.6517 25.2789 11.6666 32.4856 11.6666 40.0001C11.6666 47.5145 14.6517 54.7212 19.9653 60.0348C25.2788 65.3483 32.4855 68.3334 40 68.3334C47.5144 68.3334 54.7211 65.3483 60.0347 60.0348C65.3482 54.7212 68.3333 47.5145 68.3333 40.0001C68.3333 32.4856 65.3482 25.2789 60.0347 19.9654C54.7211 14.6519 47.5144 11.6667 40 11.6667ZM40 23.3334C40.663 23.3334 41.2989 23.5968 41.7677 24.0656C42.2366 24.5345 42.5 25.1704 42.5 25.8334V37.5001H54.1666C54.8297 37.5001 55.4656 37.7635 55.9344 38.2323C56.4032 38.7012 56.6666 39.337 56.6666 40.0001C56.6666 40.6631 56.4032 41.299 55.9344 41.7678C55.4656 42.2367 54.8297 42.5001 54.1666 42.5001H42.5V54.1668C42.5 54.8298 42.2366 55.4657 41.7677 55.9345C41.2989 56.4034 40.663 56.6668 40 56.6668C39.3369 56.6668 38.701 56.4034 38.2322 55.9345C37.7634 55.4657 37.5 54.8298 37.5 54.1668V42.5001H25.8333C25.1703 42.5001 24.5344 42.2367 24.0655 41.7678C23.5967 41.299 23.3333 40.6631 23.3333 40.0001C23.3333 39.337 23.5967 38.7012 24.0655 38.2323C24.5344 37.7635 25.1703 37.5001 25.8333 37.5001H37.5V25.8334C37.5 25.1704 37.7634 24.5345 38.2322 24.0656C38.701 23.5968 39.3369 23.3334 40 23.3334Z"/></svg>