<svg xmlns="http://www.w3.org/2000/svg" width="1440" height="1024" fill="none" viewBox="0 0 1440 1024"><g clip-path="url(#clip0_611_3)"><rect width="1440" height="1024" fill="#fff"/><rect width="1440" height="1024" fill="url(#paint0_linear_611_3)"/><g filter="url(#filter0_f_611_3)"><path fill="url(#paint1_linear_611_3)" d="M60.6866 182.965L420.507 -176.753L484.761 -252L-77 -52V1148.28L624 1196C610.537 1173.36 580.307 1126.99 567.09 1122.59C550.567 1117.08 331.5 1150.88 331.5 1060.5C331.5 1032.5 293.883 1059.48 255 1074.5C211 1091.5 220.5 1093.24 178.5 1063.5C156.5 1047.92 155.5 1085.44 103 1091.5C38 1099 62.5 1085 60.6866 962.918V182.965Z"/></g><path fill="#331165" d="M43.6866 182.965L403.507 -176.753L467.761 -252L-94 -52V1148.28L607 1196C593.537 1173.36 563.307 1126.99 550.09 1122.59C533.567 1117.08 314.5 1150.88 314.5 1060.5C314.5 1032.5 276.883 1059.48 238 1074.5C194 1091.5 203.5 1093.24 161.5 1063.5C139.5 1047.92 138.5 1085.44 86 1091.5C21 1099 45.5 1085 43.6866 962.918V182.965Z"/><g filter="url(#filter1_f_611_3)"><path fill="url(#paint2_linear_611_3)" d="M1379.31 182.965L1019.49 -176.753L955.239 -252L1517 -52V1148.28L816 1196C829.463 1173.36 859.693 1126.99 872.91 1122.59C889.433 1117.08 1108.5 1150.88 1108.5 1060.5C1108.5 1032.5 1146.12 1059.48 1185 1074.5C1229 1091.5 1219.5 1093.24 1261.5 1063.5C1283.5 1047.92 1284.5 1085.44 1337 1091.5C1402 1099 1377.5 1085 1379.31 962.918V182.965Z"/></g><path fill="#331165" d="M1396.31 182.965L1036.49 -176.753L972.239 -252L1534 -52V1148.28L833 1196C846.463 1173.36 876.693 1126.99 889.91 1122.59C906.433 1117.08 1125.5 1150.88 1125.5 1060.5C1125.5 1032.5 1163.12 1059.48 1202 1074.5C1246 1091.5 1236.5 1093.24 1278.5 1063.5C1300.5 1047.92 1301.5 1085.44 1354 1091.5C1419 1099 1394.5 1085 1396.31 962.918V182.965Z"/></g><defs><filter id="filter0_f_611_3" width="703" height="1450" x="-78" y="-253" color-interpolation-filters="sRGB" filterUnits="userSpaceOnUse"><feFlood flood-opacity="0" result="BackgroundImageFix"/><feBlend in="SourceGraphic" in2="BackgroundImageFix" mode="normal" result="shape"/><feGaussianBlur result="effect1_foregroundBlur_611_3" stdDeviation=".5"/></filter><filter id="filter1_f_611_3" width="703" height="1450" x="815" y="-253" color-interpolation-filters="sRGB" filterUnits="userSpaceOnUse"><feFlood flood-opacity="0" result="BackgroundImageFix"/><feBlend in="SourceGraphic" in2="BackgroundImageFix" mode="normal" result="shape"/><feGaussianBlur result="effect1_foregroundBlur_611_3" stdDeviation=".5"/></filter><linearGradient id="paint0_linear_611_3" x1="720" x2="720" y1="-181.5" y2="1532.5" gradientUnits="userSpaceOnUse"><stop stop-color="#391584"/><stop offset=".494" stop-color="#AC55D3"/><stop offset="1" stop-color="#E09BE7"/></linearGradient><linearGradient id="paint1_linear_611_3" x1="218.5" x2="-252.923" y1="202.5" y2="418.527" gradientUnits="userSpaceOnUse"><stop stop-color="#45149B"/><stop offset="1" stop-color="#7941C9" stop-opacity="0"/></linearGradient><linearGradient id="paint2_linear_611_3" x1="1137" x2="1665.91" y1="118" y2="318.503" gradientUnits="userSpaceOnUse"><stop stop-color="#45149B"/><stop offset="1" stop-color="#7941C9" stop-opacity="0"/></linearGradient><clipPath id="clip0_611_3"><rect width="1440" height="1024" fill="#fff"/></clipPath></defs></svg>