<svg width="1440" height="1718" viewBox="0 0 1440 1718" fill="none" xmlns="http://www.w3.org/2000/svg">
<rect width="1440" height="1718" fill="#1F0748"/>
<mask id="mask0_573_459" style="mask-type:alpha" maskUnits="userSpaceOnUse" x="0" y="0" width="1440" height="1718">
<rect width="1440" height="1718" fill="#1F0748"/>
</mask>
<g mask="url(#mask0_573_459)">
<path d="M510.214 1078.17C510.214 1081.28 507.684 1083.81 504.574 1083.81C501.464 1083.81 498.934 1081.28 498.934 1078.17C498.934 1075.06 501.464 1072.53 504.574 1072.53C507.696 1072.54 510.214 1075.06 510.214 1078.17Z" fill="white" fill-opacity="0.21"/>
<path d="M389.192 1170.74C389.192 1173.85 386.662 1176.38 383.552 1176.38C380.442 1176.38 377.912 1173.85 377.912 1170.74C377.912 1167.63 380.442 1165.1 383.552 1165.1C386.674 1165.1 389.192 1167.63 389.192 1170.74Z" fill="white" fill-opacity="0.21"/>
<path d="M14.143 1415.37C14.143 1418.48 11.613 1421.01 8.5029 1421.01C5.39282 1421.01 2.86279 1418.48 2.86279 1415.37C2.86279 1412.26 5.39282 1409.73 8.5029 1409.73C11.613 1409.73 14.143 1412.26 14.143 1415.37Z" fill="white" fill-opacity="0.21"/>
<path d="M510.214 1288.66C510.214 1291.77 507.684 1294.3 504.574 1294.3C501.464 1294.3 498.934 1291.77 498.934 1288.66C498.934 1285.55 501.464 1283.02 504.574 1283.02C507.696 1283.02 510.214 1285.54 510.214 1288.66Z" fill="white" fill-opacity="0.21"/>
<path d="M521.494 1209.73C521.494 1212.84 518.964 1215.37 515.854 1215.37C512.744 1215.37 510.214 1212.84 510.214 1209.73C510.214 1206.62 512.744 1204.09 515.854 1204.09C518.964 1204.1 521.494 1206.62 521.494 1209.73Z" fill="white" fill-opacity="0.21"/>
<path d="M602.405 1072.54C602.405 1075.65 599.875 1078.18 596.765 1078.18C593.655 1078.18 591.125 1075.65 591.125 1072.54C591.125 1069.43 593.655 1066.9 596.765 1066.9C599.875 1066.9 602.405 1069.41 602.405 1072.54Z" fill="white" fill-opacity="0.21"/>
<path d="M33.2802 842.64C33.2802 845.75 30.7502 848.28 27.6401 848.28C24.53 848.28 22 845.75 22 842.64C22 839.53 24.53 837 27.6401 837C30.7625 837 33.2802 839.53 33.2802 842.64Z" fill="white" fill-opacity="0.21"/>
<path d="M133.523 1039.51C133.523 1042.62 130.993 1045.15 127.883 1045.15C124.773 1045.15 122.243 1042.62 122.243 1039.51C122.243 1036.4 124.773 1033.87 127.883 1033.87C130.993 1033.87 133.523 1036.4 133.523 1039.51Z" fill="white" fill-opacity="0.21"/>
<path d="M102.694 1181.83C102.694 1184.95 100.164 1187.48 97.0542 1187.48C93.9441 1187.48 91.4141 1184.95 91.4141 1181.83C91.4141 1178.72 93.9441 1176.19 97.0542 1176.19C100.177 1176.19 102.694 1178.72 102.694 1181.83Z" fill="white" fill-opacity="0.21"/>
<path d="M79.8502 1399.39C79.8502 1400.94 78.5913 1402.19 77.0486 1402.19C75.5059 1402.19 74.2471 1400.94 74.2471 1399.39C74.2471 1397.85 75.5059 1396.59 77.0486 1396.59C78.5913 1396.59 79.8502 1397.85 79.8502 1399.39Z" fill="white" fill-opacity="0.21"/>
<path d="M341.134 1421.01C341.134 1422.56 339.875 1423.82 338.333 1423.82C336.79 1423.82 335.531 1422.56 335.531 1421.01C335.531 1419.47 336.79 1418.21 338.333 1418.21C339.888 1418.21 341.134 1419.47 341.134 1421.01Z" fill="white" fill-opacity="0.21"/>
<path d="M565.628 1042.31C565.628 1043.86 564.369 1045.11 562.826 1045.11C561.283 1045.11 560.025 1043.86 560.025 1042.31C560.025 1040.77 561.283 1039.51 562.826 1039.51C564.369 1039.51 565.628 1040.77 565.628 1042.31Z" fill="white" fill-opacity="0.21"/>
<path d="M447.309 1033.87C448.856 1033.87 450.11 1032.62 450.11 1031.07C450.11 1029.52 448.856 1028.27 447.309 1028.27C445.761 1028.27 444.507 1029.52 444.507 1031.07C444.507 1032.62 445.761 1033.87 447.309 1033.87Z" fill="white" fill-opacity="0.21"/>
<path d="M27.5337 1245.41C27.5337 1246.95 26.2749 1248.21 24.7322 1248.21C23.1895 1248.21 21.9307 1246.95 21.9307 1245.41C21.9307 1243.86 23.1895 1242.6 24.7322 1242.6C26.2749 1242.6 27.5337 1243.86 27.5337 1245.41Z" fill="white" fill-opacity="0.21"/>
<path d="M360.794 1039.51C360.794 1041.05 359.535 1042.31 357.992 1042.31C356.45 1042.31 355.191 1041.05 355.191 1039.51C355.191 1037.97 356.45 1036.71 357.992 1036.71C359.547 1036.71 360.794 1037.97 360.794 1039.51Z" fill="white" fill-opacity="0.21"/>
<path d="M460.082 1319.8C460.082 1321.34 458.823 1322.6 457.281 1322.6C455.738 1322.6 454.479 1321.34 454.479 1319.8C454.479 1318.26 455.738 1317 457.281 1317C458.823 1317 460.082 1318.26 460.082 1319.8Z" fill="white" fill-opacity="0.21"/>
<path d="M316.339 1328.21C316.339 1329.75 315.081 1331.01 313.538 1331.01C311.995 1331.01 310.736 1329.75 310.736 1328.21C310.736 1326.66 311.995 1325.4 313.538 1325.4C315.081 1325.4 316.339 1326.65 316.339 1328.21Z" fill="white" fill-opacity="0.21"/>
<path d="M708.765 1264.19C708.765 1265.73 707.507 1266.99 705.964 1266.99C704.421 1266.99 703.162 1265.73 703.162 1264.19C703.162 1262.65 704.421 1261.39 705.964 1261.39C707.507 1261.39 708.765 1262.63 708.765 1264.19Z" fill="white" fill-opacity="0.21"/>
<path d="M622.214 1164.96C622.214 1166.51 620.955 1167.77 619.412 1167.77C617.869 1167.77 616.611 1166.51 616.611 1164.96C616.611 1163.42 617.869 1162.16 619.412 1162.16C620.955 1162.16 622.214 1163.41 622.214 1164.96Z" fill="white" fill-opacity="0.21"/>
<path d="M422.675 1080.97C424.222 1080.97 425.476 1079.71 425.476 1078.16C425.476 1076.62 424.222 1075.36 422.675 1075.36C421.128 1075.36 419.873 1076.62 419.873 1078.16C419.873 1079.71 421.128 1080.97 422.675 1080.97Z" fill="white" fill-opacity="0.21"/>
<path d="M627.854 1116.53C627.854 1118.08 626.595 1119.34 625.052 1119.34C623.51 1119.34 622.251 1118.08 622.251 1116.53C622.251 1114.99 623.51 1113.73 625.052 1113.73C626.595 1113.73 627.854 1114.99 627.854 1116.53Z" fill="white" fill-opacity="0.21"/>
<path d="M221.741 1325.4C221.741 1326.95 220.482 1328.21 218.94 1328.21C217.397 1328.21 216.138 1326.95 216.138 1325.4C216.138 1323.86 217.397 1322.6 218.94 1322.6C220.495 1322.6 221.741 1323.86 221.741 1325.4Z" fill="white" fill-opacity="0.21"/>
<path d="M58.0173 1325.4C59.5646 1325.4 60.8188 1324.15 60.8188 1322.6C60.8188 1321.06 59.5646 1319.8 58.0173 1319.8C56.4701 1319.8 55.2158 1321.06 55.2158 1322.6C55.2158 1324.15 56.4701 1325.4 58.0173 1325.4Z" fill="white" fill-opacity="0.21"/>
<path d="M739.373 1042.35C739.373 1045.46 736.842 1047.99 733.732 1047.99C730.622 1047.99 728.092 1045.46 728.092 1042.35C728.092 1039.24 730.622 1036.71 733.732 1036.71C736.842 1036.71 739.373 1039.24 739.373 1042.35Z" fill="white" fill-opacity="0.21"/>
<path d="M679.479 1107.65C679.479 1110.76 676.949 1113.29 673.839 1113.29C670.729 1113.29 668.198 1110.76 668.198 1107.65C668.198 1104.54 670.729 1102.01 673.839 1102.01C676.949 1102.01 679.479 1104.54 679.479 1107.65Z" fill="white" fill-opacity="0.21"/>
<path d="M679.429 1220.12C679.429 1221.66 678.171 1222.92 676.628 1222.92C675.085 1222.92 673.826 1221.66 673.826 1220.12C673.826 1218.58 675.085 1217.32 676.628 1217.32C678.183 1217.32 679.429 1218.56 679.429 1220.12Z" fill="white" fill-opacity="0.21"/>
<path d="M733.732 1176.86C733.732 1178.4 732.474 1179.66 730.931 1179.66C729.388 1179.66 728.129 1178.4 728.129 1176.86C728.129 1175.32 729.388 1174.06 730.931 1174.06C732.474 1174.06 733.732 1175.32 733.732 1176.86Z" fill="white" fill-opacity="0.21"/>
<path d="M698.472 1099.22C698.472 1100.76 697.214 1102.02 695.671 1102.02C694.128 1102.02 692.869 1100.76 692.869 1099.22C692.869 1097.68 694.128 1096.42 695.671 1096.42C697.214 1096.42 698.472 1097.66 698.472 1099.22Z" fill="white" fill-opacity="0.21"/>
<path d="M601.443 1329.28C601.443 1332.39 598.913 1334.92 595.803 1334.92C592.693 1334.92 590.163 1332.39 590.163 1329.28C590.163 1326.17 592.693 1323.64 595.803 1323.64C598.925 1323.64 601.443 1326.17 601.443 1329.28Z" fill="white" fill-opacity="0.21"/>
<path d="M625.052 1452.91C625.052 1456.02 622.522 1458.55 619.412 1458.55C616.302 1458.55 613.772 1456.02 613.772 1452.91C613.772 1449.8 616.302 1447.27 619.412 1447.27C622.522 1447.28 625.052 1449.8 625.052 1452.91Z" fill="white" fill-opacity="0.21"/>
<path d="M654.672 1501.77C654.672 1503.31 653.413 1504.57 651.871 1504.57C650.328 1504.57 649.069 1503.31 649.069 1501.77C649.069 1500.22 650.328 1498.96 651.871 1498.96C653.426 1498.96 654.672 1500.22 654.672 1501.77Z" fill="white" fill-opacity="0.21"/>
<path d="M697.485 1458.55C697.485 1460.09 696.226 1461.35 694.684 1461.35C693.141 1461.35 691.882 1460.09 691.882 1458.55C691.882 1457 693.141 1455.74 694.684 1455.74C696.226 1455.74 697.485 1457 697.485 1458.55Z" fill="white" fill-opacity="0.21"/>
<path d="M598.604 1473.02C598.604 1474.56 597.345 1475.82 595.803 1475.82C594.26 1475.82 593.001 1474.56 593.001 1473.02C593.001 1471.48 594.26 1470.22 595.803 1470.22C597.358 1470.22 598.604 1471.48 598.604 1473.02Z" fill="white" fill-opacity="0.21"/>
<path d="M665.644 1412.63C665.644 1415.74 663.114 1418.27 660.004 1418.27C656.894 1418.27 654.364 1415.74 654.364 1412.63C654.364 1409.52 656.894 1406.99 660.004 1406.99C663.114 1406.99 665.644 1409.52 665.644 1412.63Z" fill="white" fill-opacity="0.21"/>
<path d="M780.199 1466.1C781.746 1466.1 783 1464.84 783 1463.3C783 1461.75 781.746 1460.5 780.199 1460.5C778.651 1460.5 777.397 1461.75 777.397 1463.3C777.397 1464.84 778.651 1466.1 780.199 1466.1Z" fill="white" fill-opacity="0.21"/>
<path d="M745.124 1339.45C745.124 1340.99 743.865 1342.25 742.322 1342.25C740.779 1342.25 739.521 1340.99 739.521 1339.45C739.521 1337.91 740.779 1336.65 742.322 1336.65C743.865 1336.66 745.124 1337.91 745.124 1339.45Z" fill="white" fill-opacity="0.21"/>
<path d="M767.018 1254.06C767.018 1255.6 765.759 1256.86 764.216 1256.86C762.673 1256.86 761.415 1255.6 761.415 1254.06C761.415 1252.51 762.673 1251.26 764.216 1251.26C765.759 1251.26 767.018 1252.51 767.018 1254.06Z" fill="white" fill-opacity="0.21"/>
<path d="M183.26 1594.03C183.26 1595.57 182.001 1596.83 180.459 1596.83C178.916 1596.83 177.657 1595.57 177.657 1594.03C177.657 1592.49 178.916 1591.23 180.459 1591.23C182.001 1591.23 183.26 1592.49 183.26 1594.03Z" fill="white" fill-opacity="0.21"/>
<path d="M84.3795 1608.51C84.3795 1610.05 83.1206 1611.31 81.5779 1611.31C80.0352 1611.31 78.7764 1610.05 78.7764 1608.51C78.7764 1606.96 80.0352 1605.71 81.5779 1605.71C83.1206 1605.71 84.3795 1606.96 84.3795 1608.51Z" fill="white" fill-opacity="0.21"/>
<path d="M268.8 1486.31C268.8 1489.42 266.27 1491.95 263.16 1491.95C260.05 1491.95 257.52 1489.42 257.52 1486.31C257.52 1483.2 260.05 1480.67 263.16 1480.67C266.282 1480.67 268.8 1483.2 268.8 1486.31Z" fill="white" fill-opacity="0.21"/>
<path d="M268.763 1598.77C268.763 1600.31 267.504 1601.57 265.961 1601.57C264.418 1601.57 263.16 1600.31 263.16 1598.77C263.16 1597.23 264.418 1595.97 265.961 1595.97C267.516 1595.98 268.763 1597.23 268.763 1598.77Z" fill="white" fill-opacity="0.21"/>
<path d="M323.066 1555.53C323.066 1557.07 321.807 1558.33 320.264 1558.33C318.722 1558.33 317.463 1557.07 317.463 1555.53C317.463 1553.98 318.722 1552.72 320.264 1552.72C321.807 1552.72 323.066 1553.97 323.066 1555.53Z" fill="white" fill-opacity="0.21"/>
<path d="M287.794 1477.87C287.794 1479.42 286.535 1480.67 284.992 1480.67C283.449 1480.67 282.19 1479.42 282.19 1477.87C282.19 1476.33 283.449 1475.07 284.992 1475.07C286.547 1475.07 287.794 1476.33 287.794 1477.87Z" fill="white" fill-opacity="0.21"/>
<path d="M532.774 1518.7C532.774 1521.81 530.244 1524.34 527.134 1524.34C524.024 1524.34 521.494 1521.81 521.494 1518.7C521.494 1515.59 524.024 1513.06 527.134 1513.06C530.244 1513.06 532.774 1515.59 532.774 1518.7Z" fill="white" fill-opacity="0.21"/>
<path d="M562.394 1567.55C562.394 1569.09 561.135 1570.35 559.593 1570.35C558.05 1570.35 556.791 1569.09 556.791 1567.55C556.791 1566 558.05 1564.75 559.593 1564.75C561.148 1564.76 562.394 1566 562.394 1567.55Z" fill="white" fill-opacity="0.21"/>
<path d="M605.207 1524.34C605.207 1525.88 603.948 1527.14 602.405 1527.14C600.863 1527.14 599.604 1525.88 599.604 1524.34C599.604 1522.8 600.863 1521.54 602.405 1521.54C603.948 1521.54 605.207 1522.8 605.207 1524.34Z" fill="white" fill-opacity="0.21"/>
<path d="M687.908 1531.88C689.455 1531.88 690.71 1530.62 690.71 1529.08C690.71 1527.53 689.455 1526.28 687.908 1526.28C686.361 1526.28 685.106 1527.53 685.106 1529.08C685.106 1530.62 686.361 1531.88 687.908 1531.88Z" fill="white" fill-opacity="0.21"/>
<path d="M778.286 1563.02C778.286 1564.56 777.027 1565.82 775.484 1565.82C773.941 1565.82 772.683 1564.56 772.683 1563.02C772.683 1561.47 773.941 1560.22 775.484 1560.22C777.039 1560.23 778.286 1561.47 778.286 1563.02Z" fill="white" fill-opacity="0.21"/>
<g opacity="0.7">
<path d="M1159.77 1077.48C1234.29 1116.21 1265.88 1173.57 1272.36 1197.41H1286.3C1247.42 1028.34 1039.47 979.557 1001.33 970.389C970.816 963.054 934.092 940.682 919.544 930.413H826.755C881.035 1022.47 1066.61 1029.07 1159.77 1077.48Z" fill="#100427"/>
<path d="M820.521 1182.74C798.222 1138.43 771.62 1110.98 761.107 1102.79C769.615 1174.38 812.574 1236.77 832.99 1259.02H824.555C880.301 1332.74 988.493 1324.3 1007.56 1324.3C1022.82 1324.3 1105.12 1290.56 1144.36 1273.69C1144.36 1280.29 1156.47 1285.8 1160.87 1290.2C1164.39 1293.72 1166.49 1311.22 1167.1 1319.54C1160.35 1341.54 1107.57 1392.03 1082.02 1414.53H1110.25C1121.99 1396.33 1174.31 1360.49 1199.01 1344.84L1204.14 1327.97C1214.12 1333.55 1231.04 1327.85 1238.25 1324.3C1236.78 1347.48 1198.28 1400.96 1179.2 1424.79H1210.01C1221.75 1384.45 1272.73 1351.81 1275.29 1336.41C1277.86 1321 1269.79 1327.97 1272.73 1315.14C1275.07 1304.87 1291.55 1304.99 1299.5 1306.33C1296.2 1312.2 1302.8 1323.94 1305.37 1362.45C1307.42 1393.25 1300.35 1420.52 1296.57 1430.3H1320.4C1323.92 1424.72 1329.7 1365.38 1332.14 1336.41L1375.78 1424.79L1410.99 1421.13C1390.75 1402.64 1371.5 1360.12 1364.41 1341.18C1405.86 1301.2 1357.45 1246.92 1350.48 1240.69C1343.51 1234.45 1324.44 1223.45 1302.8 1199.98C1285.49 1181.2 1248.4 1187.02 1232.02 1192.27C1245.59 1173.81 1272.73 1134.47 1272.73 1124.79C1272.73 1112.69 1279.69 1099.12 1277.86 1095.82C1276.39 1093.18 1273.83 1082.98 1272.73 1078.21C1268.69 1093.25 1255.49 1126.99 1234.95 1141.66C1214.41 1156.33 1205.37 1190.07 1203.41 1205.11C1196.81 1205.48 1186.54 1211.34 1179.94 1211.71C1174.66 1212.01 1163.8 1213.79 1159.03 1214.65C1156.71 1207.07 1148.62 1189.19 1134.83 1178.34C1117.59 1164.77 1106.22 1130.66 1101.45 1105.35C1097.64 1085.11 1090.08 1071.98 1086.78 1067.94C1083.12 1075.65 1089.72 1118.56 1090.45 1151.56C1091.18 1184.57 1099.62 1202.91 1122.36 1218.68C1140.55 1231.3 1142.41 1238.61 1141.06 1240.69C990.694 1304.87 848.394 1238.12 820.521 1182.74Z" fill="#100427"/>
<path d="M1063.68 1190.81C1161.09 1155.01 1228.96 1175.89 1250.72 1190.81H1266.49C1182.51 1100.59 1010.87 1176.87 918.81 1184.21C845.166 1190.07 780.789 1142.64 757.806 1118.19L783.5 1162.5C874 1307 941.916 1235.55 1063.68 1190.81Z" fill="#100427"/>
<path d="M982.992 1116.36C1089.5 1098.46 1213.43 1154.13 1262.09 1184.21L1259.16 1189.71C996.928 1104.99 938.248 1193.74 837.758 1231.88C757.366 1262.4 735 1255 725.5 1235.5L708 1183C808.49 1200.97 849.861 1138.73 982.992 1116.36Z" fill="#100427"/>
<path d="M1260.26 1022.47C1218.01 987.553 1194 939.5 1210.01 915.376L1269 833C1256.9 855.616 1271.77 957.699 1317.84 1011.1C1375.42 1077.85 1362.58 1116.36 1334.71 1152.66C1312.41 1181.71 1304.14 1203.89 1302.8 1211.34H1296.57C1298.64 1201.44 1305.81 1171.96 1317.84 1133.23C1332.87 1084.82 1313.07 1066.11 1260.26 1022.47Z" fill="#100427"/>
<path d="M1391.19 1122.96C1353.93 1152 1319.18 1195.7 1306.47 1213.91V1231.88C1330.67 1186.41 1368.82 1169.54 1403.29 1141.66C1437.76 1113.79 1486.18 1071.61 1511.12 1025.03C1531.07 987.773 1533.12 941.293 1531.65 922.711L1511.12 864C1527.62 938.084 1437.76 1086.65 1391.19 1122.96Z" fill="#100427"/>
<path d="M1449.87 1142.4C1370.36 1158.83 1316.25 1204.5 1299.13 1225.28C1330.43 1203.61 1406.08 1159.85 1458.3 1158.17C1510.53 1156.48 1566.86 1146.95 1588.5 1142.4V1074.55C1575.42 1090.32 1529.38 1125.97 1449.87 1142.4Z" fill="#100427"/>
<path d="M1427.5 1288.36C1414 1273.99 1346.81 1232.25 1314.9 1213.18L1325.17 1231.88C1443.41 1348.95 1546.81 1363.06 1583.73 1355.48V1281.03C1549.99 1314.4 1444.37 1306.33 1427.5 1288.36Z" fill="#100427"/>
<path d="M1397.79 1181.64C1343.51 1180.17 1306.22 1204.5 1294.36 1216.85C1328.4 1201.3 1370.16 1201.08 1386.79 1202.91C1473.34 1219.93 1556.1 1202.67 1586.67 1191.91V1129.56C1546.32 1147.53 1452.07 1183.11 1397.79 1181.64Z" fill="#100427"/>
<path d="M1203.78 1238.12C1198.5 1241.05 1198.89 1246.92 1199.74 1249.49C1201.58 1245.45 1208.91 1248.02 1213.68 1240.32C1217.49 1234.16 1215.27 1227.97 1213.68 1225.65C1214.05 1228.58 1210.38 1234.45 1203.78 1238.12Z" fill="#A752D0"/>
<path d="M1174.3 1246.41C1180.28 1245.56 1183.5 1250.48 1184.37 1253.05C1180.47 1250.93 1176.17 1257.4 1167.72 1254.13C1160.96 1251.51 1159.01 1245.23 1158.88 1242.42C1160.36 1244.98 1166.82 1247.46 1174.3 1246.41Z" fill="#A752D0"/>
</g>
<path d="M91.9248 1323.24L-55.1528 1386.43V1719.81H1519.12V1437.64L1439.59 1408.22L1312.12 1427.83L1257.65 1399.5H1170.49L1097.5 1371.18L1061.55 1326.51L914.47 1270.95L855.639 1276.39L560.394 1337.4L303.281 1265.5L197.603 1323.24H91.9248Z" fill="#100427"/>
<path d="M211 1720L-78.0318 1599.96L-102 1623.93L102.5 1720H211Z" fill="url(#paint0_linear_573_459)"/>
<path d="M23.2884 1531.33L-78.0317 1446.35L-69.316 1523.7L23.2884 1567.28L186.708 1650.08L225.929 1638.1L23.2884 1531.33Z" fill="url(#paint1_linear_573_459)"/>
<path d="M1369.16 1494.18L1148 1461.5L1169.79 1511.62C1215.55 1518.52 1310.77 1533.4 1325.58 1537.76C1340.4 1542.12 1360.81 1572.99 1369.16 1587.88C1416.01 1609.3 1512.1 1654.77 1521.69 1665.23C1531.27 1675.69 1539.48 1645.62 1542.39 1629.28L1369.16 1494.18Z" fill="url(#paint2_linear_573_459)"/>
<path d="M975.496 1486.55L818.613 1388.5L765 1405.22L818.613 1497.45L1046.31 1564.99H1163.97L975.496 1486.55Z" fill="url(#paint3_linear_573_459)"/>
<path d="M362.251 1428.78L239.141 1364.5L513.686 1428.78L969.082 1651.03L1080.21 1607.45L1389.61 1641.22L1439.73 1620.52L1520.35 1651.03V1721.84H379.682L386.219 1676.09L260.93 1607.45L140 1494.15L466.839 1651.03L348.088 1539.9V1514.85L386.219 1500.68L391.666 1464.73L362.251 1428.78Z" fill="url(#paint4_linear_573_459)"/>
<path d="M1313.62 274.809C1313.62 277.461 1311.46 279.618 1308.81 279.618C1306.16 279.618 1304 277.461 1304 274.809C1304 272.157 1306.16 270 1308.81 270C1311.47 270.011 1313.62 272.157 1313.62 274.809Z" fill="white" fill-opacity="0.1"/>
<path d="M1163.23 616.081C1163.23 618.733 1161.07 620.89 1158.42 620.89C1155.77 620.89 1153.61 618.733 1153.61 616.081C1153.61 613.43 1155.77 611.272 1158.42 611.272C1161.09 611.272 1163.23 613.43 1163.23 616.081Z" fill="white" fill-opacity="0.1"/>
<path d="M843.458 824.661C843.458 827.313 841.301 829.47 838.649 829.47C835.997 829.47 833.84 827.313 833.84 824.661C833.84 822.01 835.997 819.852 838.649 819.852C841.301 819.852 843.458 822.01 843.458 824.661Z" fill="white" fill-opacity="0.1"/>
<path d="M1266.42 716.625C1266.42 719.277 1264.26 721.434 1261.61 721.434C1258.96 721.434 1256.8 719.277 1256.8 716.625C1256.8 713.974 1258.96 711.816 1261.61 711.816C1264.27 711.816 1266.42 713.963 1266.42 716.625Z" fill="white" fill-opacity="0.1"/>
<path d="M1276.04 649.322C1276.04 651.973 1273.88 654.13 1271.23 654.13C1268.57 654.13 1266.42 651.973 1266.42 649.322C1266.42 646.67 1268.57 644.513 1271.23 644.513C1273.88 644.523 1276.04 646.67 1276.04 649.322Z" fill="white" fill-opacity="0.1"/>
<path d="M1345.02 532.351C1345.02 535.003 1342.86 537.16 1340.21 537.16C1337.56 537.16 1335.4 535.003 1335.4 532.351C1335.4 529.7 1337.56 527.542 1340.21 527.542C1342.86 527.542 1345.02 529.689 1345.02 532.351Z" fill="white" fill-opacity="0.1"/>
<path d="M940.435 574.674C940.435 577.326 938.278 579.483 935.626 579.483C932.975 579.483 930.818 577.326 930.818 574.674C930.818 572.022 932.975 569.865 935.626 569.865C938.289 569.865 940.435 572.022 940.435 574.674Z" fill="white" fill-opacity="0.1"/>
<path d="M869.291 489.809C869.291 492.461 867.134 494.618 864.483 494.618C861.831 494.618 859.674 492.461 859.674 489.809C859.674 487.157 861.831 485 864.483 485C867.145 485 869.291 487.157 869.291 489.809Z" fill="white" fill-opacity="0.1"/>
<path d="M945.244 504.194C945.244 506.845 943.087 509.002 940.435 509.002C937.783 509.002 935.626 506.845 935.626 504.194C935.626 501.542 937.783 499.385 940.435 499.385C943.087 499.385 945.244 501.542 945.244 504.194Z" fill="white" fill-opacity="0.1"/>
<path d="M918.958 625.541C918.958 628.193 916.801 630.35 914.15 630.35C911.498 630.35 909.341 628.193 909.341 625.541C909.341 622.89 911.498 620.732 914.15 620.732C916.812 620.732 918.958 622.89 918.958 625.541Z" fill="white" fill-opacity="0.1"/>
<path d="M808.618 620.732C808.618 623.384 806.461 625.541 803.809 625.541C801.157 625.541 799 623.394 799 620.732C799 618.08 801.157 615.923 803.809 615.923C806.461 615.923 808.618 618.08 808.618 620.732Z" fill="white" fill-opacity="0.1"/>
<path d="M899.481 811.035C899.481 812.35 898.408 813.424 897.093 813.424C895.777 813.424 894.704 812.35 894.704 811.035C894.704 809.72 895.777 808.646 897.093 808.646C898.408 808.646 899.481 809.72 899.481 811.035Z" fill="white" fill-opacity="0.1"/>
<path d="M1122.26 829.47C1122.26 830.786 1121.18 831.859 1119.87 831.859C1118.55 831.859 1117.48 830.786 1117.48 829.47C1117.48 828.155 1118.55 827.082 1119.87 827.082C1121.19 827.082 1122.26 828.155 1122.26 829.47Z" fill="white" fill-opacity="0.1"/>
<path d="M1174.78 294.389C1174.78 295.704 1173.7 296.777 1172.39 296.777C1171.07 296.777 1170 295.704 1170 294.389C1170 293.073 1171.07 292 1172.39 292C1173.7 292 1174.78 293.073 1174.78 294.389Z" fill="white" fill-opacity="0.1"/>
<path d="M1212.78 499.384C1214.1 499.384 1215.17 498.315 1215.17 496.996C1215.17 495.676 1214.1 494.607 1212.78 494.607C1211.46 494.607 1210.39 495.676 1210.39 496.996C1210.39 498.315 1211.46 499.384 1212.78 499.384Z" fill="white" fill-opacity="0.1"/>
<path d="M808.586 716.625C808.586 717.941 807.513 719.014 806.197 719.014C804.882 719.014 803.809 717.941 803.809 716.625C803.809 715.31 804.882 714.237 806.197 714.237C807.513 714.237 808.586 715.3 808.586 716.625Z" fill="white" fill-opacity="0.1"/>
<path d="M854.875 679.743C854.875 681.058 853.802 682.131 852.487 682.131C851.171 682.131 850.098 681.058 850.098 679.743C850.098 678.427 851.171 677.354 852.487 677.354C853.802 677.354 854.875 678.427 854.875 679.743Z" fill="white" fill-opacity="0.1"/>
<path d="M824.812 613.545C824.812 614.86 823.739 615.934 822.424 615.934C821.108 615.934 820.035 614.86 820.035 613.545C820.035 612.23 821.108 611.156 822.424 611.156C823.739 611.156 824.812 612.219 824.812 613.545Z" fill="white" fill-opacity="0.1"/>
<path d="M1076.78 432.389C1076.78 433.704 1075.7 434.777 1074.39 434.777C1073.07 434.777 1072 433.704 1072 432.389C1072 431.073 1073.07 430 1074.39 430C1075.71 430 1076.78 431.073 1076.78 432.389Z" fill="white" fill-opacity="0.1"/>
<path d="M1223.67 743.174C1223.67 744.489 1222.6 745.563 1221.29 745.563C1219.97 745.563 1218.9 744.489 1218.9 743.174C1218.9 741.859 1219.97 740.785 1221.29 740.785C1222.6 740.785 1223.67 741.859 1223.67 743.174Z" fill="white" fill-opacity="0.1"/>
<path d="M1101.12 750.34C1101.12 751.655 1100.04 752.728 1098.73 752.728C1097.41 752.728 1096.34 751.655 1096.34 750.34C1096.34 749.024 1097.41 747.951 1098.73 747.951C1100.04 747.951 1101.12 749.014 1101.12 750.34Z" fill="white" fill-opacity="0.1"/>
<path d="M1435.71 695.759C1435.71 697.074 1434.63 698.147 1433.32 698.147C1432 698.147 1430.93 697.074 1430.93 695.759C1430.93 694.443 1432 693.37 1433.32 693.37C1434.63 693.37 1435.71 694.433 1435.71 695.759Z" fill="white" fill-opacity="0.1"/>
<path d="M1361.91 611.156C1361.91 612.472 1360.84 613.545 1359.52 613.545C1358.21 613.545 1357.13 612.472 1357.13 611.156C1357.13 609.841 1358.21 608.768 1359.52 608.768C1360.84 608.768 1361.91 609.83 1361.91 611.156Z" fill="white" fill-opacity="0.1"/>
<path d="M1156.39 594.777C1157.71 594.777 1158.78 593.708 1158.78 592.389C1158.78 591.069 1157.71 590 1156.39 590C1155.07 590 1154 591.069 1154 592.389C1154 593.708 1155.07 594.777 1156.39 594.777Z" fill="white" fill-opacity="0.1"/>
<path d="M1242.78 395.389C1242.78 396.704 1241.7 397.777 1240.39 397.777C1239.07 397.777 1238 396.704 1238 395.389C1238 394.073 1239.07 393 1240.39 393C1241.7 393 1242.78 394.073 1242.78 395.389Z" fill="white" fill-opacity="0.1"/>
<path d="M1020.46 747.951C1020.46 749.266 1019.39 750.34 1018.07 750.34C1016.76 750.34 1015.68 749.266 1015.68 747.951C1015.68 746.636 1016.76 745.562 1018.07 745.562C1019.4 745.562 1020.46 746.636 1020.46 747.951Z" fill="white" fill-opacity="0.1"/>
<path d="M880.866 747.951C882.185 747.951 883.255 746.882 883.255 745.563C883.255 744.244 882.185 743.174 880.866 743.174C879.547 743.174 878.478 744.244 878.478 745.563C878.478 746.882 879.547 747.951 880.866 747.951Z" fill="white" fill-opacity="0.1"/>
<path d="M1420.62 424.809C1420.62 427.461 1418.46 429.618 1415.81 429.618C1413.16 429.618 1411 427.461 1411 424.809C1411 422.157 1413.16 420 1415.81 420C1418.46 420 1420.62 422.157 1420.62 424.809Z" fill="white" fill-opacity="0.1"/>
<path d="M1410.69 658.182C1410.69 659.498 1409.62 660.571 1408.31 660.571C1406.99 660.571 1405.92 659.498 1405.92 658.182C1405.92 656.867 1406.99 655.794 1408.31 655.794C1409.63 655.794 1410.69 656.856 1410.69 658.182Z" fill="white" fill-opacity="0.1"/>
<path d="M1426.93 555.102C1426.93 556.418 1425.86 557.491 1424.54 557.491C1423.23 557.491 1422.15 556.418 1422.15 555.102C1422.15 553.787 1423.23 552.714 1424.54 552.714C1425.86 552.714 1426.93 553.777 1426.93 555.102Z" fill="white" fill-opacity="0.1"/>
<path d="M1046.62 208.809C1046.62 211.461 1044.46 213.618 1041.81 213.618C1039.16 213.618 1037 211.461 1037 208.809C1037 206.157 1039.16 204 1041.81 204C1044.47 204 1046.62 206.157 1046.62 208.809Z" fill="white" fill-opacity="0.1"/>
<path d="M1364.33 856.661C1364.33 859.313 1362.17 861.47 1359.52 861.47C1356.87 861.47 1354.71 859.313 1354.71 856.661C1354.71 854.009 1356.87 851.852 1359.52 851.852C1362.17 851.863 1364.33 854.009 1364.33 856.661Z" fill="white" fill-opacity="0.1"/>
<path d="M1389.59 898.32C1389.59 899.636 1388.51 900.709 1387.2 900.709C1385.88 900.709 1384.81 899.636 1384.81 898.32C1384.81 897.005 1385.88 895.932 1387.2 895.932C1388.52 895.932 1389.59 897.005 1389.59 898.32Z" fill="white" fill-opacity="0.1"/>
<path d="M1426.09 861.47C1426.09 862.785 1425.01 863.858 1423.7 863.858C1422.38 863.858 1421.31 862.785 1421.31 861.47C1421.31 860.154 1422.38 859.081 1423.7 859.081C1425.01 859.081 1426.09 860.154 1426.09 861.47Z" fill="white" fill-opacity="0.1"/>
<path d="M1341.78 873.813C1341.78 875.128 1340.71 876.201 1339.39 876.201C1338.08 876.201 1337 875.128 1337 873.813C1337 872.497 1338.08 871.424 1339.39 871.424C1340.72 871.424 1341.78 872.497 1341.78 873.813Z" fill="white" fill-opacity="0.1"/>
<path d="M1398.94 822.325C1398.94 824.977 1396.78 827.134 1394.13 827.134C1391.48 827.134 1389.32 824.977 1389.32 822.325C1389.32 819.674 1391.48 817.516 1394.13 817.516C1396.78 817.516 1398.94 819.674 1398.94 822.325Z" fill="white" fill-opacity="0.1"/>
<path d="M987.651 976.988C987.651 978.304 986.578 979.377 985.262 979.377C983.947 979.377 982.874 978.304 982.874 976.988C982.874 975.673 983.947 974.6 985.262 974.6C986.578 974.6 987.651 975.673 987.651 976.988Z" fill="white" fill-opacity="0.1"/>
<path d="M903.343 989.331C903.343 990.646 902.27 991.719 900.954 991.719C899.639 991.719 898.566 990.646 898.566 989.331C898.566 988.015 899.639 986.942 900.954 986.942C902.27 986.942 903.343 988.015 903.343 989.331Z" fill="white" fill-opacity="0.1"/>
<path d="M1060.58 885.146C1060.58 887.798 1058.43 889.955 1055.77 889.955C1053.12 889.955 1050.97 887.798 1050.97 885.146C1050.97 882.495 1053.12 880.337 1055.77 880.337C1058.44 880.337 1060.58 882.495 1060.58 885.146Z" fill="white" fill-opacity="0.1"/>
<path d="M1060.55 981.029C1060.55 982.344 1059.48 983.417 1058.16 983.417C1056.85 983.417 1055.77 982.344 1055.77 981.029C1055.77 979.713 1056.85 978.64 1058.16 978.64C1059.49 978.651 1060.55 979.713 1060.55 981.029Z" fill="white" fill-opacity="0.1"/>
<path d="M1106.85 944.157C1106.85 945.473 1105.78 946.546 1104.46 946.546C1103.15 946.546 1102.07 945.473 1102.07 944.157C1102.07 942.842 1103.15 941.769 1104.46 941.769C1105.78 941.769 1106.85 942.831 1106.85 944.157Z" fill="white" fill-opacity="0.1"/>
<path d="M1076.78 877.948C1076.78 879.264 1075.7 880.337 1074.39 880.337C1073.07 880.337 1072 879.264 1072 877.948C1072 876.633 1073.07 875.56 1074.39 875.56C1075.71 875.56 1076.78 876.633 1076.78 877.948Z" fill="white" fill-opacity="0.1"/>
<path d="M1285.65 912.758C1285.65 915.409 1283.5 917.566 1280.84 917.566C1278.19 917.566 1276.03 915.409 1276.03 912.758C1276.03 910.106 1278.19 907.949 1280.84 907.949C1283.5 907.949 1285.65 910.106 1285.65 912.758Z" fill="white" fill-opacity="0.1"/>
<path d="M1310.91 954.406C1310.91 955.722 1309.83 956.795 1308.52 956.795C1307.2 956.795 1306.13 955.722 1306.13 954.406C1306.13 953.091 1307.2 952.018 1308.52 952.018C1309.84 952.028 1310.91 953.091 1310.91 954.406Z" fill="white" fill-opacity="0.1"/>
<path d="M1347.41 917.567C1347.41 918.882 1346.34 919.955 1345.02 919.955C1343.71 919.955 1342.63 918.882 1342.63 917.567C1342.63 916.251 1343.71 915.178 1345.02 915.178C1346.34 915.178 1347.41 916.251 1347.41 917.567Z" fill="white" fill-opacity="0.1"/>
<path d="M1417.92 923.996C1419.24 923.996 1420.31 922.926 1420.31 921.607C1420.31 920.288 1419.24 919.218 1417.92 919.218C1416.6 919.218 1415.53 920.288 1415.53 921.607C1415.53 922.926 1416.6 923.996 1417.92 923.996Z" fill="white" fill-opacity="0.1"/>
<path d="M373.417 47.1507C373.417 49.8024 371.26 51.9595 368.608 51.9595C365.957 51.9595 363.8 49.8024 363.8 47.1507C363.8 44.4989 365.957 42.3418 368.608 42.3418C371.271 42.3523 373.417 44.4989 373.417 47.1507Z" fill="white" fill-opacity="0.05"/>
<path d="M270.232 126.081C270.232 128.733 268.075 130.89 265.423 130.89C262.771 130.89 260.614 128.733 260.614 126.081C260.614 123.429 262.771 121.272 265.423 121.272C268.085 121.272 270.232 123.429 270.232 126.081Z" fill="white" fill-opacity="0.2"/>
<path d="M373.417 226.625C373.417 229.276 371.26 231.434 368.608 231.434C365.957 231.434 363.8 229.276 363.8 226.625C363.8 223.973 365.957 221.816 368.608 221.816C371.271 221.816 373.417 223.963 373.417 226.625Z" fill="white" fill-opacity="0.05"/>
<path d="M383.035 159.322C383.035 161.974 380.878 164.131 378.226 164.131C375.575 164.131 373.417 161.974 373.417 159.322C373.417 156.67 375.575 154.513 378.226 154.513C380.878 154.524 383.035 156.67 383.035 159.322Z" fill="white" fill-opacity="0.05"/>
<path d="M47.4356 84.6741C47.4356 87.3258 45.2784 89.483 42.6267 89.483C39.975 89.483 37.8179 87.3258 37.8179 84.6741C37.8179 82.0224 39.975 79.8652 42.6267 79.8652C45.289 79.8652 47.4356 82.0224 47.4356 84.6741Z" fill="white" fill-opacity="0.05"/>
<path d="M52.2442 14.1936C52.2442 16.8453 50.0871 19.0025 47.4353 19.0025C44.7836 19.0025 42.6265 16.8453 42.6265 14.1936C42.6265 11.5419 44.7836 9.38477 47.4353 9.38477C50.0871 9.38477 52.2442 11.5419 52.2442 14.1936Z" fill="white" fill-opacity="0.05"/>
<path d="M25.9585 135.541C25.9585 138.193 23.8014 140.35 21.1497 140.35C18.498 140.35 16.3408 138.193 16.3408 135.541C16.3408 132.89 18.498 130.732 21.1497 130.732C23.8119 130.732 25.9585 132.89 25.9585 135.541Z" fill="white" fill-opacity="0.05"/>
<path d="M6.4814 321.035C6.4814 322.35 5.40809 323.424 4.09275 323.424C2.77742 323.424 1.7041 322.35 1.7041 321.035C1.7041 319.72 2.77742 318.646 4.09275 318.646C5.40809 318.646 6.4814 319.72 6.4814 321.035Z" fill="white" fill-opacity="0.05"/>
<path d="M229.257 339.47C229.257 340.786 228.183 341.859 226.868 341.859C225.553 341.859 224.479 340.786 224.479 339.47C224.479 338.155 225.553 337.082 226.868 337.082C228.194 337.082 229.257 338.155 229.257 339.47Z" fill="white" fill-opacity="0.05"/>
<path d="M420.664 16.582C420.664 17.8973 419.591 18.9707 418.275 18.9707C416.96 18.9707 415.887 17.8973 415.887 16.582C415.887 15.2667 416.96 14.1934 418.275 14.1934C419.591 14.1934 420.664 15.2667 420.664 16.582Z" fill="white" fill-opacity="0.05"/>
<path d="M319.783 9.38423C321.102 9.38423 322.172 8.31479 322.172 6.99558C322.172 5.67637 321.102 4.60693 319.783 4.60693C318.464 4.60693 317.395 5.67637 317.395 6.99558C317.395 8.31479 318.464 9.38423 319.783 9.38423Z" fill="white" fill-opacity="0.05"/>
<path d="M246.019 14.1928C246.019 15.5082 244.946 16.5815 243.631 16.5815C242.315 16.5815 241.242 15.5082 241.242 14.1928C241.242 12.8775 242.315 11.8042 243.631 11.8042C244.957 11.8042 246.019 12.8775 246.019 14.1928Z" fill="white" fill-opacity="0.05"/>
<path d="M330.674 253.174C330.674 254.489 329.601 255.562 328.286 255.562C326.97 255.562 325.897 254.489 325.897 253.174C325.897 251.859 326.97 250.785 328.286 250.785C329.601 250.785 330.674 251.859 330.674 253.174Z" fill="white" fill-opacity="0.05"/>
<path d="M208.117 260.34C208.117 261.655 207.043 262.728 205.728 262.728C204.413 262.728 203.339 261.655 203.339 260.34C203.339 259.024 204.413 257.951 205.728 257.951C207.043 257.951 208.117 259.014 208.117 260.34Z" fill="white" fill-opacity="0.05"/>
<path d="M542.706 205.759C542.706 207.074 541.633 208.147 540.318 208.147C539.002 208.147 537.929 207.074 537.929 205.759C537.929 204.443 539.002 203.37 540.318 203.37C541.633 203.37 542.706 204.433 542.706 205.759Z" fill="white" fill-opacity="0.05"/>
<path d="M468.911 121.156C468.911 122.472 467.837 123.545 466.522 123.545C465.207 123.545 464.133 122.472 464.133 121.156C464.133 119.841 465.207 118.768 466.522 118.768C467.837 118.768 468.911 119.83 468.911 121.156Z" fill="white" fill-opacity="0.05"/>
<path d="M298.78 49.539C300.099 49.539 301.169 48.4696 301.169 47.1504C301.169 45.8312 300.099 44.7617 298.78 44.7617C297.461 44.7617 296.392 45.8312 296.392 47.1504C296.392 48.4696 297.461 49.539 298.78 49.539Z" fill="white" fill-opacity="0.05"/>
<path d="M127.46 257.951C127.46 259.266 126.387 260.34 125.072 260.34C123.756 260.34 122.683 259.266 122.683 257.951C122.683 256.636 123.756 255.562 125.072 255.562C126.398 255.563 127.46 256.636 127.46 257.951Z" fill="white" fill-opacity="0.05"/>
<path d="M568.802 16.6131C568.802 19.2648 566.645 21.422 563.993 21.422C561.342 21.422 559.185 19.2648 559.185 16.6131C559.185 13.9614 561.342 11.8043 563.993 11.8043C566.645 11.8043 568.802 13.9614 568.802 16.6131Z" fill="white" fill-opacity="0.05"/>
<path d="M517.694 168.182C517.694 169.498 516.62 170.571 515.305 170.571C513.99 170.571 512.917 169.498 512.917 168.182C512.917 166.867 513.99 165.794 515.305 165.794C516.631 165.794 517.694 166.856 517.694 168.182Z" fill="white" fill-opacity="0.05"/>
<path d="M563.994 131.3C563.994 132.616 562.92 133.689 561.605 133.689C560.29 133.689 559.216 132.616 559.216 131.3C559.216 129.985 560.29 128.912 561.605 128.912C562.92 128.912 563.994 129.985 563.994 131.3Z" fill="white" fill-opacity="0.05"/>
<path d="M533.93 65.1024C533.93 66.4178 532.857 67.4911 531.542 67.4911C530.226 67.4911 529.153 66.4178 529.153 65.1024C529.153 63.7871 530.226 62.7138 531.542 62.7138C532.857 62.7138 533.93 63.7766 533.93 65.1024Z" fill="white" fill-opacity="0.05"/>
<path d="M162.618 515.809C162.618 518.461 160.461 520.618 157.809 520.618C155.157 520.618 153 518.461 153 515.809C153 513.157 155.157 511 157.809 511C160.471 511 162.618 513.157 162.618 515.809Z" fill="white" fill-opacity="0.05"/>
<path d="M471.331 366.661C471.331 369.313 469.173 371.47 466.522 371.47C463.87 371.47 461.713 369.313 461.713 366.661C461.713 364.009 463.87 361.852 466.522 361.852C469.173 361.863 471.331 364.009 471.331 366.661Z" fill="white" fill-opacity="0.05"/>
<path d="M496.585 408.32C496.585 409.636 495.512 410.709 494.197 410.709C492.881 410.709 491.808 409.636 491.808 408.32C491.808 407.005 492.881 405.932 494.197 405.932C495.522 405.932 496.585 407.005 496.585 408.32Z" fill="white" fill-opacity="0.05"/>
<path d="M533.088 371.47C533.088 372.785 532.015 373.858 530.7 373.858C529.384 373.858 528.311 372.785 528.311 371.47C528.311 370.154 529.384 369.081 530.7 369.081C532.015 369.081 533.088 370.154 533.088 371.47Z" fill="white" fill-opacity="0.05"/>
<path d="M448.781 383.813C448.781 385.128 447.707 386.202 446.392 386.202C445.077 386.202 444.003 385.128 444.003 383.813C444.003 382.498 445.077 381.424 446.392 381.424C447.718 381.424 448.781 382.498 448.781 383.813Z" fill="white" fill-opacity="0.05"/>
<path d="M505.94 332.325C505.94 334.977 503.783 337.134 501.131 337.134C498.479 337.134 496.322 334.977 496.322 332.325C496.322 329.674 498.479 327.517 501.131 327.517C503.783 327.517 505.94 329.674 505.94 332.325Z" fill="white" fill-opacity="0.05"/>
<path d="M603.611 377.91C604.931 377.91 606 376.841 606 375.521C606 374.202 604.931 373.133 603.611 373.133C602.292 373.133 601.223 374.202 601.223 375.521C601.223 376.841 602.292 377.91 603.611 377.91Z" fill="white" fill-opacity="0.05"/>
<path d="M573.706 269.926C573.706 271.242 572.633 272.315 571.317 272.315C570.002 272.315 568.929 271.242 568.929 269.926C568.929 268.611 570.002 267.538 571.317 267.538C572.633 267.548 573.706 268.611 573.706 269.926Z" fill="white" fill-opacity="0.05"/>
<path d="M592.373 197.12C592.373 198.435 591.3 199.508 589.984 199.508C588.669 199.508 587.596 198.435 587.596 197.12C587.596 195.804 588.669 194.731 589.984 194.731C591.3 194.731 592.373 195.804 592.373 197.12Z" fill="white" fill-opacity="0.05"/>
<path d="M94.6508 486.988C94.6508 488.304 93.5775 489.377 92.2622 489.377C90.9468 489.377 89.8735 488.304 89.8735 486.988C89.8735 485.673 90.9468 484.6 92.2622 484.6C93.5775 484.6 94.6508 485.673 94.6508 486.988Z" fill="white" fill-opacity="0.05"/>
<path d="M10.3432 499.331C10.3432 500.646 9.2699 501.719 7.95456 501.719C6.63923 501.719 5.56592 500.646 5.56592 499.331C5.56592 498.015 6.63923 496.942 7.95456 496.942C9.2699 496.942 10.3432 498.015 10.3432 499.331Z" fill="white" fill-opacity="0.05"/>
<path d="M167.584 395.146C167.584 397.798 165.426 399.955 162.775 399.955C160.123 399.955 157.966 397.798 157.966 395.146C157.966 392.495 160.123 390.337 162.775 390.337C165.437 390.337 167.584 392.495 167.584 395.146Z" fill="white" fill-opacity="0.05"/>
<path d="M167.552 491.029C167.552 492.344 166.478 493.417 165.163 493.417C163.848 493.417 162.774 492.344 162.774 491.029C162.774 489.713 163.848 488.64 165.163 488.64C166.489 488.651 167.552 489.713 167.552 491.029Z" fill="white" fill-opacity="0.05"/>
<path d="M213.851 454.157C213.851 455.473 212.778 456.546 211.463 456.546C210.147 456.546 209.074 455.473 209.074 454.157C209.074 452.842 210.147 451.769 211.463 451.769C212.778 451.769 213.851 452.831 213.851 454.157Z" fill="white" fill-opacity="0.05"/>
<path d="M183.778 387.949C183.778 389.264 182.704 390.337 181.389 390.337C180.074 390.337 179 389.264 179 387.949C179 386.633 180.074 385.56 181.389 385.56C182.715 385.56 183.778 386.633 183.778 387.949Z" fill="white" fill-opacity="0.05"/>
<path d="M392.652 422.758C392.652 425.409 390.495 427.566 387.844 427.566C385.192 427.566 383.035 425.409 383.035 422.758C383.035 420.106 385.192 417.949 387.844 417.949C390.495 417.949 392.652 420.106 392.652 422.758Z" fill="white" fill-opacity="0.05"/>
<path d="M417.907 464.407C417.907 465.722 416.834 466.795 415.519 466.795C414.203 466.795 413.13 465.722 413.13 464.407C413.13 463.091 414.203 462.018 415.519 462.018C416.844 462.029 417.907 463.091 417.907 464.407Z" fill="white" fill-opacity="0.05"/>
<path d="M454.41 427.566C454.41 428.882 453.337 429.955 452.022 429.955C450.706 429.955 449.633 428.882 449.633 427.566C449.633 426.251 450.706 425.178 452.022 425.178C453.337 425.178 454.41 426.251 454.41 427.566Z" fill="white" fill-opacity="0.05"/>
<path d="M524.923 433.996C526.242 433.996 527.312 432.926 527.312 431.607C527.312 430.288 526.242 429.218 524.923 429.218C523.604 429.218 522.534 430.288 522.534 431.607C522.534 432.926 523.604 433.996 524.923 433.996Z" fill="white" fill-opacity="0.05"/>
<path d="M601.98 460.544C601.98 461.86 600.907 462.933 599.592 462.933C598.276 462.933 597.203 461.86 597.203 460.544C597.203 459.229 598.276 458.156 599.592 458.156C600.918 458.166 601.98 459.229 601.98 460.544Z" fill="white" fill-opacity="0.05"/>
</g>
<defs>
<linearGradient id="paint0_linear_573_459" x1="65.7774" y1="1599.96" x2="65.7774" y2="1743.77" gradientUnits="userSpaceOnUse">
<stop stop-color="#8038CC" stop-opacity="0.47"/>
<stop offset="1" stop-color="#100427"/>
</linearGradient>
<linearGradient id="paint1_linear_573_459" x1="73.9484" y1="1446.35" x2="73.9484" y2="1650.08" gradientUnits="userSpaceOnUse">
<stop stop-color="#8038CC" stop-opacity="0.47"/>
<stop offset="1" stop-color="#100427"/>
</linearGradient>
<linearGradient id="paint2_linear_573_459" x1="1156.89" y1="1485.9" x2="1455.89" y2="1620.4" gradientUnits="userSpaceOnUse">
<stop stop-color="#8038CC" stop-opacity="0"/>
<stop offset="1" stop-color="#100427"/>
</linearGradient>
<linearGradient id="paint3_linear_573_459" x1="771.5" y1="1423.22" x2="1075" y2="1564.72" gradientUnits="userSpaceOnUse">
<stop stop-color="#8038CC" stop-opacity="0"/>
<stop offset="0.501739" stop-color="#56258F" stop-opacity="0.69"/>
<stop offset="1" stop-color="#100427"/>
</linearGradient>
<linearGradient id="paint4_linear_573_459" x1="429" y1="1567" x2="1136.5" y2="1721.5" gradientUnits="userSpaceOnUse">
<stop stop-color="#8038CC" stop-opacity="0.21"/>
<stop offset="1" stop-color="#100427"/>
</linearGradient>
</defs>
</svg>
